#usda 1.0
(
    defaultPrim = "FallenLog"
    metersPerUnit = 1
    upAxis = "Y"
)

def Xform "FallenLog"
{
    def Scope "Materials"
    {
        def Material "Mat_Wood"
        {
            token outputs:surface.connect = </FallenLog/Materials/Mat_Wood/Surface.outputs:surface>

            def Shader "Surface"
            {
                uniform token info:id = "UsdPreviewSurface"
                color3f inputs:diffuseColor = (0.28, 0.18, 0.1)
                float inputs:metallic = 0
                float inputs:roughness = 0.9
                token outputs:surface
            }
        }
    }

    def Mesh "Log"
    {
        int[] faceVertexCounts = [4, 3, 3, 4, 3, 3, 4, 3, 3, 4, 3, 3, 4, 3, 3, 4, 3, 3, 4, 3, 3, 4, 3, 3, 4, 3, 3, 4, 3, 3, 4, 3, 3, 4, 3, 3]
        int[] faceVertexIndices = [0, 2, 3, 1, 24, 2, 0, 25, 1, 3, 2, 4, 5, 3, 24, 4, 2, 25, 3, 5, 4, 6, 7, 5, 24, 6, 4, 25, 5, 7, 6, 8, 9, 7, 24, 8, 6, 25, 7, 9, 8, 10, 11, 9, 24, 10, 8, 25, 9, 11, 10, 12, 13, 11, 24, 12, 10, 25, 11, 13, 12, 14, 15, 13, 24, 14, 12, 25, 13, 15, 14, 16, 17, 15, 24, 16, 14, 25, 15, 17, 16, 18, 19, 17, 24, 18, 16, 25, 17, 19, 18, 20, 21, 19, 24, 20, 18, 25, 19, 21, 20, 22, 23, 21, 24, 22, 20, 25, 21, 23, 22, 0, 1, 23, 24, 0, 22, 25, 23, 1]
        rel material:binding = </FallenLog/Materials/Mat_Wood>
        point3f[] points = [(0.25, 0, 0), (0.25, 2.5, 0), (0.21650635, 0, 0.125), (0.21650635, 2.5, 0.125), (0.125, 0, 0.21650635), (0.125, 2.5, 0.21650635), (1.5308086e-17, 0, 0.25), (1.5308086e-17, 2.5, 0.25), (-0.125, 0, 0.21650635), (-0.125, 2.5, 0.21650635), (-0.21650635, 0, 0.125), (-0.21650635, 2.5, 0.125), (-0.25, 0, 3.061617e-17), (-0.25, 2.5, 3.061617e-17), (-0.21650635, 0, -0.125), (-0.21650635, 2.5, -0.125), (-0.125, 0, -0.21650635), (-0.125, 2.5, -0.21650635), (-4.5924254e-17, 0, -0.25), (-4.5924254e-17, 2.5, -0.25), (0.125, 0, -0.21650635), (0.125, 2.5, -0.21650635), (0.21650635, 0, -0.125), (0.21650635, 2.5, -0.125), (0, 0, 0), (0, 2.5, 0)]
        uniform token subdivisionScheme = "none"
        float xformOp:rotateZ = 90
        double3 xformOp:translate = (1.25, 0.25, 0)
        uniform token[] xformOpOrder = ["xformOp:rotateZ", "xformOp:translate"]
    }
}

