#usda 1.0
(
    defaultPrim = "Moss"
    metersPerUnit = 1
    upAxis = "Y"
)

def Xform "Moss"
{
    def Scope "Materials"
    {
        def Material "Mat_Moss"
        {
            token outputs:surface.connect = </Moss/Materials/Mat_Moss/Surface.outputs:surface>

            def Shader "Surface"
            {
                uniform token info:id = "UsdPreviewSurface"
                color3f inputs:diffuseColor = (0.22, 0.45, 0.18)
                float inputs:metallic = 0
                float inputs:roughness = 0.95
                token outputs:surface
            }
        }
    }

    def Mesh "Patch"
    {
        int[] faceVertexCounts = [3, 3, 3, 3, 3, 3, 3, 3, 3, 3, 4, 4, 4, 4, 4, 4, 4, 4, 4, 4, 4, 4, 4, 4, 4, 4, 4, 4, 4, 4, 4, 4, 4, 4, 4, 4, 4, 4, 4, 4, 4, 4, 4, 4, 4, 4, 4, 4, 4, 4, 3, 3, 3, 3, 3, 3, 3, 3, 3, 3]
        int[] faceVertexIndices = [0, 1, 2, 0, 2, 3, 0, 3, 4, 0, 4, 5, 0, 5, 6, 0, 6, 7, 0, 7, 8, 0, 8, 9, 0, 9, 10, 0, 10, 1, 1, 2, 12, 11, 2, 3, 13, 12, 3, 4, 14, 13, 4, 5, 15, 14, 5, 6, 16, 15, 6, 7, 17, 16, 7, 8, 18, 17, 8, 9, 19, 18, 9, 10, 20, 19, 10, 1, 11, 20, 11, 12, 22, 21, 12, 13, 23, 22, 13, 14, 24, 23, 14, 15, 25, 24, 15, 16, 26, 25, 16, 17, 27, 26, 17, 18, 28, 27, 18, 19, 29, 28, 19, 20, 30, 29, 20, 11, 21, 30, 21, 22, 32, 31, 22, 23, 33, 32, 23, 24, 34, 33, 24, 25, 35, 34, 25, 26, 36, 35, 26, 27, 37, 36, 27, 28, 38, 37, 28, 29, 39, 38, 29, 30, 40, 39, 30, 21, 31, 40, 31, 32, 42, 41, 32, 33, 43, 42, 33, 34, 44, 43, 34, 35, 45, 44, 35, 36, 46, 45, 36, 37, 47, 46, 37, 38, 48, 47, 38, 39, 49, 48, 39, 40, 50, 49, 40, 31, 41, 50, 51, 42, 41, 51, 43, 42, 51, 44, 43, 51, 45, 44, 51, 46, 45, 51, 47, 46, 51, 48, 47, 51, 49, 48, 51, 50, 49, 51, 41, 50]
        rel material:binding = </Moss/Materials/Mat_Moss>
        point3f[] points = [(0, 0.45, 0), (0.225, 0.38971144, 0), (0.18202883, 0.38971144, 0.13225168), (0.069528826, 0.38971144, 0.21398772), (-0.069528826, 0.38971144, 0.21398772), (-0.18202883, 0.38971144, 0.13225168), (-0.225, 0.38971144, 2.7554553e-17), (-0.18202883, 0.38971144, -0.13225168), (-0.069528826, 0.38971144, -0.21398772), (0.069528826, 0.38971144, -0.21398772), (0.18202883, 0.38971144, -0.13225168), (0.38971144, 0.225, 0), (0.31528318, 0.225, 0.22906663), (0.12042745, 0.225, 0.3706376), (-0.12042745, 0.225, 0.3706376), (-0.31528318, 0.225, 0.22906663), (-0.38971144, 0.225, 4.7725886e-17), (-0.31528318, 0.225, -0.22906663), (-0.12042745, 0.225, -0.3706376), (0.12042745, 0.225, -0.3706376), (0.31528318, 0.225, -0.22906663), (0.45, 2.7554553e-17, 0), (0.36405766, 2.7554553e-17, 0.26450336), (0.13905765, 2.7554553e-17, 0.42797545), (-0.13905765, 2.7554553e-17, 0.42797545), (-0.36405766, 2.7554553e-17, 0.26450336), (-0.45, 2.7554553e-17, 5.5109105e-17), (-0.36405766, 2.7554553e-17, -0.26450336), (-0.13905765, 2.7554553e-17, -0.42797545), (0.13905765, 2.7554553e-17, -0.42797545), (0.36405766, 2.7554553e-17, -0.26450336), (0.38971144, -0.225, 0), (0.31528318, -0.225, 0.22906663), (0.12042745, -0.225, 0.3706376), (-0.12042745, -0.225, 0.3706376), (-0.31528318, -0.225, 0.22906663), (-0.38971144, -0.225, 4.7725886e-17), (-0.31528318, -0.225, -0.22906663), (-0.12042745, -0.225, -0.3706376), (0.12042745, -0.225, -0.3706376), (0.31528318, -0.225, -0.22906663), (0.225, -0.38971144, 0), (0.18202883, -0.38971144, 0.13225168), (0.069528826, -0.38971144, 0.21398772), (-0.069528826, -0.38971144, 0.21398772), (-0.18202883, -0.38971144, 0.13225168), (-0.225, -0.38971144, 2.7554553e-17), (-0.18202883, -0.38971144, -0.13225168), (-0.069528826, -0.38971144, -0.21398772), (0.069528826, -0.38971144, -0.21398772), (0.18202883, -0.38971144, -0.13225168), (0, -0.45, 0)]
        uniform token subdivisionScheme = "none"
        float3 xformOp:scale = (1.4, 0.12, 1.4)
        double3 xformOp:translate = (0, 0.04, 0)
        uniform token[] xformOpOrder = ["xformOp:translate", "xformOp:scale"]
    }
}

