#usda 1.0
(
    defaultPrim = "Mushroom"
    metersPerUnit = 1
    upAxis = "Y"
)

def Xform "Mushroom"
{
    def Scope "Materials"
    {
        def Material "Mat_Stem"
        {
            token outputs:surface.connect = </Mushroom/Materials/Mat_Stem/Surface.outputs:surface>

            def Shader "Surface"
            {
                uniform token info:id = "UsdPreviewSurface"
                color3f inputs:diffuseColor = (0.95, 0.92, 0.85)
                float inputs:metallic = 0
                float inputs:roughness = 0.5
                token outputs:surface
            }
        }

        def Material "Mat_Cap"
        {
            token outputs:surface.connect = </Mushroom/Materials/Mat_Cap/Surface.outputs:surface>

            def Shader "Surface"
            {
                uniform token info:id = "UsdPreviewSurface"
                color3f inputs:diffuseColor = (0.85, 0.18, 0.12)
                float inputs:metallic = 0
                float inputs:roughness = 0.45
                token outputs:surface
            }
        }

        def Material "Mat_Spots"
        {
            token outputs:surface.connect = </Mushroom/Materials/Mat_Spots/Surface.outputs:surface>

            def Shader "Surface"
            {
                uniform token info:id = "UsdPreviewSurface"
                color3f inputs:diffuseColor = (0.98, 0.96, 0.92)
                float inputs:metallic = 0
                float inputs:roughness = 0.5
                token outputs:surface
            }
        }
    }

    def Mesh "Stem"
    {
        int[] faceVertexCounts = [4, 3, 3, 4, 3, 3, 4, 3, 3, 4, 3, 3, 4, 3, 3, 4, 3, 3, 4, 3, 3, 4, 3, 3, 4, 3, 3, 4, 3, 3]
        int[] faceVertexIndices = [0, 2, 3, 1, 20, 2, 0, 21, 1, 3, 2, 4, 5, 3, 20, 4, 2, 21, 3, 5, 4, 6, 7, 5, 20, 6, 4, 21, 5, 7, 6, 8, 9, 7, 20, 8, 6, 21, 7, 9, 8, 10, 11, 9, 20, 10, 8, 21, 9, 11, 10, 12, 13, 11, 20, 12, 10, 21, 11, 13, 12, 14, 15, 13, 20, 14, 12, 21, 13, 15, 14, 16, 17, 15, 20, 16, 14, 21, 15, 17, 16, 18, 19, 17, 20, 18, 16, 21, 17, 19, 18, 0, 1, 19, 20, 0, 18, 21, 19, 1]
        rel material:binding = </Mushroom/Materials/Mat_Stem>
        point3f[] points = [(0.05, 0, 0), (0.05, 0.18, 0), (0.04045085, 0, 0.029389262), (0.04045085, 0.18, 0.029389262), (0.01545085, 0, 0.047552824), (0.01545085, 0.18, 0.047552824), (-0.01545085, 0, 0.047552824), (-0.01545085, 0.18, 0.047552824), (-0.04045085, 0, 0.029389262), (-0.04045085, 0.18, 0.029389262), (-0.05, 0, 6.123234e-18), (-0.05, 0.18, 6.123234e-18), (-0.04045085, 0, -0.029389262), (-0.04045085, 0.18, -0.029389262), (-0.01545085, 0, -0.047552824), (-0.01545085, 0.18, -0.047552824), (0.01545085, 0, -0.047552824), (0.01545085, 0.18, -0.047552824), (0.04045085, 0, -0.029389262), (0.04045085, 0.18, -0.029389262), (0, 0, 0), (0, 0.18, 0)]
        uniform token subdivisionScheme = "none"
    }

    def Mesh "Cap"
    {
        int[] faceVertexCounts = [3, 3, 3, 3, 3, 3, 3, 3, 3, 3, 3, 3, 4, 4, 4, 4, 4, 4, 4, 4, 4, 4, 4, 4, 4, 4, 4, 4, 4, 4, 4, 4, 4, 4, 4, 4, 4, 4, 4, 4, 4, 4, 4, 4, 4, 4, 4, 4, 4, 4, 4, 4, 4, 4, 4, 4, 4, 4, 4, 4, 4, 4, 4, 4, 4, 4, 4, 4, 4, 4, 4, 4, 4, 4, 4, 4, 4, 4, 4, 4, 4, 4, 4, 4, 3, 3, 3, 3, 3, 3, 3, 3, 3, 3, 3, 3]
        int[] faceVertexIndices = [0, 1, 2, 0, 2, 3, 0, 3, 4, 0, 4, 5, 0, 5, 6, 0, 6, 7, 0, 7, 8, 0, 8, 9, 0, 9, 10, 0, 10, 11, 0, 11, 12, 0, 12, 1, 1, 2, 14, 13, 2, 3, 15, 14, 3, 4, 16, 15, 4, 5, 17, 16, 5, 6, 18, 17, 6, 7, 19, 18, 7, 8, 20, 19, 8, 9, 21, 20, 9, 10, 22, 21, 10, 11, 23, 22, 11, 12, 24, 23, 12, 1, 13, 24, 13, 14, 26, 25, 14, 15, 27, 26, 15, 16, 28, 27, 16, 17, 29, 28, 17, 18, 30, 29, 18, 19, 31, 30, 19, 20, 32, 31, 20, 21, 33, 32, 21, 22, 34, 33, 22, 23, 35, 34, 23, 24, 36, 35, 24, 13, 25, 36, 25, 26, 38, 37, 26, 27, 39, 38, 27, 28, 40, 39, 28, 29, 41, 40, 29, 30, 42, 41, 30, 31, 43, 42, 31, 32, 44, 43, 32, 33, 45, 44, 33, 34, 46, 45, 34, 35, 47, 46, 35, 36, 48, 47, 36, 25, 37, 48, 37, 38, 50, 49, 38, 39, 51, 50, 39, 40, 52, 51, 40, 41, 53, 52, 41, 42, 54, 53, 42, 43, 55, 54, 43, 44, 56, 55, 44, 45, 57, 56, 45, 46, 58, 57, 46, 47, 59, 58, 47, 48, 60, 59, 48, 37, 49, 60, 49, 50, 62, 61, 50, 51, 63, 62, 51, 52, 64, 63, 52, 53, 65, 64, 53, 54, 66, 65, 54, 55, 67, 66, 55, 56, 68, 67, 56, 57, 69, 68, 57, 58, 70, 69, 58, 59, 71, 70, 59, 60, 72, 71, 60, 49, 61, 72, 61, 62, 74, 73, 62, 63, 75, 74, 63, 64, 76, 75, 64, 65, 77, 76, 65, 66, 78, 77, 66, 67, 79, 78, 67, 68, 80, 79, 68, 69, 81, 80, 69, 70, 82, 81, 70, 71, 83, 82, 71, 72, 84, 83, 72, 61, 73, 84, 85, 74, 73, 85, 75, 74, 85, 76, 75, 85, 77, 76, 85, 78, 77, 85, 79, 78, 85, 80, 79, 85, 81, 80, 85, 82, 81, 85, 83, 82, 85, 84, 83, 85, 73, 84]
        rel material:binding = </Mushroom/Materials/Mat_Cap>
        point3f[] points = [(0, 0.14, 0), (0.05357568, 0.12934314, 0), (0.046397902, 0.12934314, 0.02678784), (0.02678784, 0.12934314, 0.046397902), (3.2805642e-18, 0.12934314, 0.05357568), (-0.02678784, 0.12934314, 0.046397902), (-0.046397902, 0.12934314, 0.02678784), (-0.05357568, 0.12934314, 6.5611284e-18), (-0.046397902, 0.12934314, -0.02678784), (-0.02678784, 0.12934314, -0.046397902), (-9.841693e-18, 0.12934314, -0.05357568), (0.02678784, 0.12934314, -0.046397902), (0.046397902, 0.12934314, -0.02678784), (0.09899495, 0.09899495, 0), (0.08573214, 0.09899495, 0.049497474), (0.049497474, 0.09899495, 0.08573214), (6.0616924e-18, 0.09899495, 0.09899495), (-0.049497474, 0.09899495, 0.08573214), (-0.08573214, 0.09899495, 0.049497474), (-0.09899495, 0.09899495, 1.2123385e-17), (-0.08573214, 0.09899495, -0.049497474), (-0.049497474, 0.09899495, -0.08573214), (-1.8185078e-17, 0.09899495, -0.09899495), (0.049497474, 0.09899495, -0.08573214), (0.08573214, 0.09899495, -0.049497474), (0.12934314, 0.05357568, 0), (0.11201444, 0.05357568, 0.06467157), (0.06467157, 0.05357568, 0.11201444), (7.919983e-18, 0.05357568, 0.12934314), (-0.06467157, 0.05357568, 0.11201444), (-0.11201444, 0.05357568, 0.06467157), (-0.12934314, 0.05357568, 1.5839966e-17), (-0.11201444, 0.05357568, -0.06467157), (-0.06467157, 0.05357568, -0.11201444), (-2.3759949e-17, 0.05357568, -0.12934314), (0.06467157, 0.05357568, -0.11201444), (0.11201444, 0.05357568, -0.06467157), (0.14, 8.572528e-18, 0), (0.12124356, 8.572528e-18, 0.07), (0.07, 8.572528e-18, 0.12124356), (8.572528e-18, 8.572528e-18, 0.14), (-0.07, 8.572528e-18, 0.12124356), (-0.12124356, 8.572528e-18, 0.07), (-0.14, 8.572528e-18, 1.7145055e-17), (-0.12124356, 8.572528e-18, -0.07), (-0.07, 8.572528e-18, -0.12124356), (-2.5717583e-17, 8.572528e-18, -0.14), (0.07, 8.572528e-18, -0.12124356), (0.12124356, 8.572528e-18, -0.07), (0.12934314, -0.05357568, 0), (0.11201444, -0.05357568, 0.06467157), (0.06467157, -0.05357568, 0.11201444), (7.919983e-18, -0.05357568, 0.12934314), (-0.06467157, -0.05357568, 0.11201444), (-0.11201444, -0.05357568, 0.06467157), (-0.12934314, -0.05357568, 1.5839966e-17), (-0.11201444, -0.05357568, -0.06467157), (-0.06467157, -0.05357568, -0.11201444), (-2.3759949e-17, -0.05357568, -0.12934314), (0.06467157, -0.05357568, -0.11201444), (0.11201444, -0.05357568, -0.06467157), (0.09899495, -0.09899495, 0), (0.08573214, -0.09899495, 0.049497474), (0.049497474, -0.09899495, 0.08573214), (6.0616924e-18, -0.09899495, 0.09899495), (-0.049497474, -0.09899495, 0.08573214), (-0.08573214, -0.09899495, 0.049497474), (-0.09899495, -0.09899495, 1.2123385e-17), (-0.08573214, -0.09899495, -0.049497474), (-0.049497474, -0.09899495, -0.08573214), (-1.8185078e-17, -0.09899495, -0.09899495), (0.049497474, -0.09899495, -0.08573214), (0.08573214, -0.09899495, -0.049497474), (0.05357568, -0.12934314, 0), (0.046397902, -0.12934314, 0.02678784), (0.02678784, -0.12934314, 0.046397902), (3.2805642e-18, -0.12934314, 0.05357568), (-0.02678784, -0.12934314, 0.046397902), (-0.046397902, -0.12934314, 0.02678784), (-0.05357568, -0.12934314, 6.5611284e-18), (-0.046397902, -0.12934314, -0.02678784), (-0.02678784, -0.12934314, -0.046397902), (-9.841693e-18, -0.12934314, -0.05357568), (0.02678784, -0.12934314, -0.046397902), (0.046397902, -0.12934314, -0.02678784), (0, -0.14, 0)]
        uniform token subdivisionScheme = "none"
        float3 xformOp:scale = (1, 0.65, 1)
        double3 xformOp:translate = (0, 0.2, 0)
        uniform token[] xformOpOrder = ["xformOp:translate", "xformOp:scale"]
    }

    def Mesh "Spot_0"
    {
        int[] faceVertexCounts = [3, 3, 3, 3, 3, 3, 4, 4, 4, 4, 4, 4, 4, 4, 4, 4, 4, 4, 3, 3, 3, 3, 3, 3]
        int[] faceVertexIndices = [0, 1, 2, 0, 2, 3, 0, 3, 4, 0, 4, 5, 0, 5, 6, 0, 6, 1, 1, 2, 8, 7, 2, 3, 9, 8, 3, 4, 10, 9, 4, 5, 11, 10, 5, 6, 12, 11, 6, 1, 7, 12, 7, 8, 14, 13, 8, 9, 15, 14, 9, 10, 16, 15, 10, 11, 17, 16, 11, 12, 18, 17, 12, 7, 13, 18, 19, 14, 13, 19, 15, 14, 19, 16, 15, 19, 17, 16, 19, 18, 17, 19, 13, 18]
        rel material:binding = </Mushroom/Materials/Mat_Spots>
        point3f[] points = [(0, 0.025, 0), (0.01767767, 0.01767767, 0), (0.008838835, 0.01767767, 0.0153093105), (-0.008838835, 0.01767767, 0.0153093105), (-0.01767767, 0.01767767, 2.16489e-18), (-0.008838835, 0.01767767, -0.0153093105), (0.008838835, 0.01767767, -0.0153093105), (0.025, 1.5308085e-18, 0), (0.0125, 1.5308085e-18, 0.021650635), (-0.0125, 1.5308085e-18, 0.021650635), (-0.025, 1.5308085e-18, 3.061617e-18), (-0.0125, 1.5308085e-18, -0.021650635), (0.0125, 1.5308085e-18, -0.021650635), (0.01767767, -0.01767767, 0), (0.008838835, -0.01767767, 0.0153093105), (-0.008838835, -0.01767767, 0.0153093105), (-0.01767767, -0.01767767, 2.16489e-18), (-0.008838835, -0.01767767, -0.0153093105), (0.008838835, -0.01767767, -0.0153093105), (0, -0.025, 0)]
        uniform token subdivisionScheme = "none"
        double3 xformOp:translate = (0.07, 0.24, 0.04)
        uniform token[] xformOpOrder = ["xformOp:translate"]
    }

    def Mesh "Spot_1"
    {
        int[] faceVertexCounts = [3, 3, 3, 3, 3, 3, 4, 4, 4, 4, 4, 4, 4, 4, 4, 4, 4, 4, 3, 3, 3, 3, 3, 3]
        int[] faceVertexIndices = [0, 1, 2, 0, 2, 3, 0, 3, 4, 0, 4, 5, 0, 5, 6, 0, 6, 1, 1, 2, 8, 7, 2, 3, 9, 8, 3, 4, 10, 9, 4, 5, 11, 10, 5, 6, 12, 11, 6, 1, 7, 12, 7, 8, 14, 13, 8, 9, 15, 14, 9, 10, 16, 15, 10, 11, 17, 16, 11, 12, 18, 17, 12, 7, 13, 18, 19, 14, 13, 19, 15, 14, 19, 16, 15, 19, 17, 16, 19, 18, 17, 19, 13, 18]
        rel material:binding = </Mushroom/Materials/Mat_Spots>
        point3f[] points = [(0, 0.025, 0), (0.01767767, 0.01767767, 0), (0.008838835, 0.01767767, 0.0153093105), (-0.008838835, 0.01767767, 0.0153093105), (-0.01767767, 0.01767767, 2.16489e-18), (-0.008838835, 0.01767767, -0.0153093105), (0.008838835, 0.01767767, -0.0153093105), (0.025, 1.5308085e-18, 0), (0.0125, 1.5308085e-18, 0.021650635), (-0.0125, 1.5308085e-18, 0.021650635), (-0.025, 1.5308085e-18, 3.061617e-18), (-0.0125, 1.5308085e-18, -0.021650635), (0.0125, 1.5308085e-18, -0.021650635), (0.01767767, -0.01767767, 0), (0.008838835, -0.01767767, 0.0153093105), (-0.008838835, -0.01767767, 0.0153093105), (-0.01767767, -0.01767767, 2.16489e-18), (-0.008838835, -0.01767767, -0.0153093105), (0.008838835, -0.01767767, -0.0153093105), (0, -0.025, 0)]
        uniform token subdivisionScheme = "none"
        double3 xformOp:translate = (-0.05, 0.25, 0.06)
        uniform token[] xformOpOrder = ["xformOp:translate"]
    }

    def Mesh "Spot_2"
    {
        int[] faceVertexCounts = [3, 3, 3, 3, 3, 3, 4, 4, 4, 4, 4, 4, 4, 4, 4, 4, 4, 4, 3, 3, 3, 3, 3, 3]
        int[] faceVertexIndices = [0, 1, 2, 0, 2, 3, 0, 3, 4, 0, 4, 5, 0, 5, 6, 0, 6, 1, 1, 2, 8, 7, 2, 3, 9, 8, 3, 4, 10, 9, 4, 5, 11, 10, 5, 6, 12, 11, 6, 1, 7, 12, 7, 8, 14, 13, 8, 9, 15, 14, 9, 10, 16, 15, 10, 11, 17, 16, 11, 12, 18, 17, 12, 7, 13, 18, 19, 14, 13, 19, 15, 14, 19, 16, 15, 19, 17, 16, 19, 18, 17, 19, 13, 18]
        rel material:binding = </Mushroom/Materials/Mat_Spots>
        point3f[] points = [(0, 0.025, 0), (0.01767767, 0.01767767, 0), (0.008838835, 0.01767767, 0.0153093105), (-0.008838835, 0.01767767, 0.0153093105), (-0.01767767, 0.01767767, 2.16489e-18), (-0.008838835, 0.01767767, -0.0153093105), (0.008838835, 0.01767767, -0.0153093105), (0.025, 1.5308085e-18, 0), (0.0125, 1.5308085e-18, 0.021650635), (-0.0125, 1.5308085e-18, 0.021650635), (-0.025, 1.5308085e-18, 3.061617e-18), (-0.0125, 1.5308085e-18, -0.021650635), (0.0125, 1.5308085e-18, -0.021650635), (0.01767767, -0.01767767, 0), (0.008838835, -0.01767767, 0.0153093105), (-0.008838835, -0.01767767, 0.0153093105), (-0.01767767, -0.01767767, 2.16489e-18), (-0.008838835, -0.01767767, -0.0153093105), (0.008838835, -0.01767767, -0.0153093105), (0, -0.025, 0)]
        uniform token subdivisionScheme = "none"
        double3 xformOp:translate = (0.04, 0.25, -0.07)
        uniform token[] xformOpOrder = ["xformOp:translate"]
    }

    def Mesh "Spot_3"
    {
        int[] faceVertexCounts = [3, 3, 3, 3, 3, 3, 4, 4, 4, 4, 4, 4, 4, 4, 4, 4, 4, 4, 3, 3, 3, 3, 3, 3]
        int[] faceVertexIndices = [0, 1, 2, 0, 2, 3, 0, 3, 4, 0, 4, 5, 0, 5, 6, 0, 6, 1, 1, 2, 8, 7, 2, 3, 9, 8, 3, 4, 10, 9, 4, 5, 11, 10, 5, 6, 12, 11, 6, 1, 7, 12, 7, 8, 14, 13, 8, 9, 15, 14, 9, 10, 16, 15, 10, 11, 17, 16, 11, 12, 18, 17, 12, 7, 13, 18, 19, 14, 13, 19, 15, 14, 19, 16, 15, 19, 17, 16, 19, 18, 17, 19, 13, 18]
        rel material:binding = </Mushroom/Materials/Mat_Spots>
        point3f[] points = [(0, 0.025, 0), (0.01767767, 0.01767767, 0), (0.008838835, 0.01767767, 0.0153093105), (-0.008838835, 0.01767767, 0.0153093105), (-0.01767767, 0.01767767, 2.16489e-18), (-0.008838835, 0.01767767, -0.0153093105), (0.008838835, 0.01767767, -0.0153093105), (0.025, 1.5308085e-18, 0), (0.0125, 1.5308085e-18, 0.021650635), (-0.0125, 1.5308085e-18, 0.021650635), (-0.025, 1.5308085e-18, 3.061617e-18), (-0.0125, 1.5308085e-18, -0.021650635), (0.0125, 1.5308085e-18, -0.021650635), (0.01767767, -0.01767767, 0), (0.008838835, -0.01767767, 0.0153093105), (-0.008838835, -0.01767767, 0.0153093105), (-0.01767767, -0.01767767, 2.16489e-18), (-0.008838835, -0.01767767, -0.0153093105), (0.008838835, -0.01767767, -0.0153093105), (0, -0.025, 0)]
        uniform token subdivisionScheme = "none"
        double3 xformOp:translate = (-0.08, 0.23, -0.03)
        uniform token[] xformOpOrder = ["xformOp:translate"]
    }
}

