#usda 1.0
(
    defaultPrim = "RockSmall"
    metersPerUnit = 1
    upAxis = "Y"
)

def Xform "RockSmall"
{
    def Scope "Materials"
    {
        def Material "Mat_Rock"
        {
            token outputs:surface.connect = </RockSmall/Materials/Mat_Rock/Surface.outputs:surface>

            def Shader "Surface"
            {
                uniform token info:id = "UsdPreviewSurface"
                color3f inputs:diffuseColor = (0.55, 0.52, 0.48)
                float inputs:metallic = 0
                float inputs:roughness = 0.95
                token outputs:surface
            }
        }
    }

    def Mesh "Body"
    {
        int[] faceVertexCounts = [3, 3, 3, 3, 3, 3, 3, 3, 3, 3, 4, 4, 4, 4, 4, 4, 4, 4, 4, 4, 4, 4, 4, 4, 4, 4, 4, 4, 4, 4, 4, 4, 4, 4, 4, 4, 4, 4, 4, 4, 4, 4, 4, 4, 4, 4, 4, 4, 4, 4, 4, 4, 4, 4, 4, 4, 4, 4, 4, 4, 4, 4, 4, 4, 4, 4, 4, 4, 4, 4, 3, 3, 3, 3, 3, 3, 3, 3, 3, 3]
        int[] faceVertexIndices = [0, 1, 2, 0, 2, 3, 0, 3, 4, 0, 4, 5, 0, 5, 6, 0, 6, 7, 0, 7, 8, 0, 8, 9, 0, 9, 10, 0, 10, 1, 1, 2, 12, 11, 2, 3, 13, 12, 3, 4, 14, 13, 4, 5, 15, 14, 5, 6, 16, 15, 6, 7, 17, 16, 7, 8, 18, 17, 8, 9, 19, 18, 9, 10, 20, 19, 10, 1, 11, 20, 11, 12, 22, 21, 12, 13, 23, 22, 13, 14, 24, 23, 14, 15, 25, 24, 15, 16, 26, 25, 16, 17, 27, 26, 17, 18, 28, 27, 18, 19, 29, 28, 19, 20, 30, 29, 20, 11, 21, 30, 21, 22, 32, 31, 22, 23, 33, 32, 23, 24, 34, 33, 24, 25, 35, 34, 25, 26, 36, 35, 26, 27, 37, 36, 27, 28, 38, 37, 28, 29, 39, 38, 29, 30, 40, 39, 30, 21, 31, 40, 31, 32, 42, 41, 32, 33, 43, 42, 33, 34, 44, 43, 34, 35, 45, 44, 35, 36, 46, 45, 36, 37, 47, 46, 37, 38, 48, 47, 38, 39, 49, 48, 39, 40, 50, 49, 40, 31, 41, 50, 41, 42, 52, 51, 42, 43, 53, 52, 43, 44, 54, 53, 44, 45, 55, 54, 45, 46, 56, 55, 46, 47, 57, 56, 47, 48, 58, 57, 48, 49, 59, 58, 49, 50, 60, 59, 50, 41, 51, 60, 51, 52, 62, 61, 52, 53, 63, 62, 53, 54, 64, 63, 54, 55, 65, 64, 55, 56, 66, 65, 56, 57, 67, 66, 57, 58, 68, 67, 58, 59, 69, 68, 59, 60, 70, 69, 60, 51, 61, 70, 71, 62, 61, 71, 63, 62, 71, 64, 63, 71, 65, 64, 71, 66, 65, 71, 67, 66, 71, 68, 67, 71, 69, 68, 71, 70, 69, 71, 61, 70]
        rel material:binding = </RockSmall/Materials/Mat_Rock>
        point3f[] points = [(0, 0.35, 0), (0.1339392, 0.32335785, 0), (0.10835909, 0.32335785, 0.078727484), (0.041389488, 0.32335785, 0.12738375), (-0.041389488, 0.32335785, 0.12738375), (-0.10835909, 0.32335785, 0.078727484), (-0.1339392, 0.32335785, 1.6402821e-17), (-0.10835909, 0.32335785, -0.078727484), (-0.041389488, 0.32335785, -0.12738375), (0.041389488, 0.32335785, -0.12738375), (0.10835909, 0.32335785, -0.078727484), (0.24748737, 0.24748737, 0), (0.2002215, 0.24748737, 0.14546943), (0.0764778, 0.24748737, 0.23537448), (-0.0764778, 0.24748737, 0.23537448), (-0.2002215, 0.24748737, 0.14546943), (-0.24748737, 0.24748737, 3.0308463e-17), (-0.2002215, 0.24748737, -0.14546943), (-0.0764778, 0.24748737, -0.23537448), (0.0764778, 0.24748737, -0.23537448), (0.2002215, 0.24748737, -0.14546943), (0.32335785, 0.1339392, 0), (0.26160198, 0.1339392, 0.19006497), (0.09992307, 0.1339392, 0.30753157), (-0.09992307, 0.1339392, 0.30753157), (-0.26160198, 0.1339392, 0.19006497), (-0.32335785, 0.1339392, 3.9599915e-17), (-0.26160198, 0.1339392, -0.19006497), (-0.09992307, 0.1339392, -0.30753157), (0.09992307, 0.1339392, -0.30753157), (0.26160198, 0.1339392, -0.19006497), (0.35, 2.1431318e-17, 0), (0.28315595, 2.1431318e-17, 0.20572484), (0.10815595, 2.1431318e-17, 0.33286977), (-0.10815595, 2.1431318e-17, 0.33286977), (-0.28315595, 2.1431318e-17, 0.20572484), (-0.35, 2.1431318e-17, 4.2862637e-17), (-0.28315595, 2.1431318e-17, -0.20572484), (-0.10815595, 2.1431318e-17, -0.33286977), (0.10815595, 2.1431318e-17, -0.33286977), (0.28315595, 2.1431318e-17, -0.20572484), (0.32335785, -0.1339392, 0), (0.26160198, -0.1339392, 0.19006497), (0.09992307, -0.1339392, 0.30753157), (-0.09992307, -0.1339392, 0.30753157), (-0.26160198, -0.1339392, 0.19006497), (-0.32335785, -0.1339392, 3.9599915e-17), (-0.26160198, -0.1339392, -0.19006497), (-0.09992307, -0.1339392, -0.30753157), (0.09992307, -0.1339392, -0.30753157), (0.26160198, -0.1339392, -0.19006497), (0.24748737, -0.24748737, 0), (0.2002215, -0.24748737, 0.14546943), (0.0764778, -0.24748737, 0.23537448), (-0.0764778, -0.24748737, 0.23537448), (-0.2002215, -0.24748737, 0.14546943), (-0.24748737, -0.24748737, 3.0308463e-17), (-0.2002215, -0.24748737, -0.14546943), (-0.0764778, -0.24748737, -0.23537448), (0.0764778, -0.24748737, -0.23537448), (0.2002215, -0.24748737, -0.14546943), (0.1339392, -0.32335785, 0), (0.10835909, -0.32335785, 0.078727484), (0.041389488, -0.32335785, 0.12738375), (-0.041389488, -0.32335785, 0.12738375), (-0.10835909, -0.32335785, 0.078727484), (-0.1339392, -0.32335785, 1.6402821e-17), (-0.10835909, -0.32335785, -0.078727484), (-0.041389488, -0.32335785, -0.12738375), (0.041389488, -0.32335785, -0.12738375), (0.10835909, -0.32335785, -0.078727484), (0, -0.35, 0)]
        uniform token subdivisionScheme = "none"
        float3 xformOp:scale = (1.2, 0.8, 1)
        uniform token[] xformOpOrder = ["xformOp:scale"]
    }
}

