#usda 1.0
(
    defaultPrim = "TreeOak"
    metersPerUnit = 1
    upAxis = "Y"
)

def Xform "TreeOak"
{
    def Scope "Materials"
    {
        def Material "Mat_Trunk"
        {
            token outputs:surface.connect = </TreeOak/Materials/Mat_Trunk/Surface.outputs:surface>

            def Shader "Surface"
            {
                uniform token info:id = "UsdPreviewSurface"
                color3f inputs:diffuseColor = (0.35, 0.22, 0.13)
                float inputs:metallic = 0
                float inputs:roughness = 0.85
                token outputs:surface
            }
        }

        def Material "Mat_Foliage"
        {
            token outputs:surface.connect = </TreeOak/Materials/Mat_Foliage/Surface.outputs:surface>

            def Shader "Surface"
            {
                uniform token info:id = "UsdPreviewSurface"
                color3f inputs:diffuseColor = (0.22, 0.42, 0.18)
                float inputs:metallic = 0
                float inputs:roughness = 0.75
                token outputs:surface
            }
        }
    }

    def Mesh "Trunk"
    {
        int[] faceVertexCounts = [4, 3, 3, 4, 3, 3, 4, 3, 3, 4, 3, 3, 4, 3, 3, 4, 3, 3, 4, 3, 3, 4, 3, 3, 4, 3, 3, 4, 3, 3, 4, 3, 3, 4, 3, 3, 4, 3, 3, 4, 3, 3]
        int[] faceVertexIndices = [0, 2, 3, 1, 28, 2, 0, 29, 1, 3, 2, 4, 5, 3, 28, 4, 2, 29, 3, 5, 4, 6, 7, 5, 28, 6, 4, 29, 5, 7, 6, 8, 9, 7, 28, 8, 6, 29, 7, 9, 8, 10, 11, 9, 28, 10, 8, 29, 9, 11, 10, 12, 13, 11, 28, 12, 10, 29, 11, 13, 12, 14, 15, 13, 28, 14, 12, 29, 13, 15, 14, 16, 17, 15, 28, 16, 14, 29, 15, 17, 16, 18, 19, 17, 28, 18, 16, 29, 17, 19, 18, 20, 21, 19, 28, 20, 18, 29, 19, 21, 20, 22, 23, 21, 28, 22, 20, 29, 21, 23, 22, 24, 25, 23, 28, 24, 22, 29, 23, 25, 24, 26, 27, 25, 28, 26, 24, 29, 25, 27, 26, 0, 1, 27, 28, 0, 26, 29, 27, 1]
        rel material:binding = </TreeOak/Materials/Mat_Trunk>
        point3f[] points = [(0.28, 0, 0), (0.28, 2.4, 0), (0.2522713, 0, 0.121487446), (0.2522713, 2.4, 0.121487446), (0.17457715, 0, 0.21891281), (0.17457715, 2.4, 0.21891281), (0.06230586, 0, 0.27297983), (0.06230586, 2.4, 0.27297983), (-0.06230586, 0, 0.27297983), (-0.06230586, 2.4, 0.27297983), (-0.17457715, 0, 0.21891281), (-0.17457715, 2.4, 0.21891281), (-0.2522713, 0, 0.121487446), (-0.2522713, 2.4, 0.121487446), (-0.28, 0, 3.429011e-17), (-0.28, 2.4, 3.429011e-17), (-0.2522713, 0, -0.121487446), (-0.2522713, 2.4, -0.121487446), (-0.17457715, 0, -0.21891281), (-0.17457715, 2.4, -0.21891281), (-0.06230586, 0, -0.27297983), (-0.06230586, 2.4, -0.27297983), (0.06230586, 0, -0.27297983), (0.06230586, 2.4, -0.27297983), (0.17457715, 0, -0.21891281), (0.17457715, 2.4, -0.21891281), (0.2522713, 0, -0.121487446), (0.2522713, 2.4, -0.121487446), (0, 0, 0), (0, 2.4, 0)]
        uniform token subdivisionScheme = "none"
    }

    def Mesh "Crown"
    {
        int[] faceVertexCounts = [3, 3, 3, 3, 3, 3, 3, 3, 3, 3, 3, 3, 3, 3, 3, 3, 4, 4, 4, 4, 4, 4, 4, 4, 4, 4, 4, 4, 4, 4, 4, 4, 4, 4, 4, 4, 4, 4, 4, 4, 4, 4, 4, 4, 4, 4, 4, 4, 4, 4, 4, 4, 4, 4, 4, 4, 4, 4, 4, 4, 4, 4, 4, 4, 4, 4, 4, 4, 4, 4, 4, 4, 4, 4, 4, 4, 4, 4, 4, 4, 4, 4, 4, 4, 4, 4, 4, 4, 4, 4, 4, 4, 4, 4, 4, 4, 4, 4, 4, 4, 4, 4, 4, 4, 4, 4, 4, 4, 4, 4, 4, 4, 4, 4, 4, 4, 4, 4, 4, 4, 4, 4, 4, 4, 4, 4, 4, 4, 4, 4, 4, 4, 4, 4, 4, 4, 4, 4, 4, 4, 4, 4, 4, 4, 3, 3, 3, 3, 3, 3, 3, 3, 3, 3, 3, 3, 3, 3, 3, 3]
        int[] faceVertexIndices = [0, 1, 2, 0, 2, 3, 0, 3, 4, 0, 4, 5, 0, 5, 6, 0, 6, 7, 0, 7, 8, 0, 8, 9, 0, 9, 10, 0, 10, 11, 0, 11, 12, 0, 12, 13, 0, 13, 14, 0, 14, 15, 0, 15, 16, 0, 16, 1, 1, 2, 18, 17, 2, 3, 19, 18, 3, 4, 20, 19, 4, 5, 21, 20, 5, 6, 22, 21, 6, 7, 23, 22, 7, 8, 24, 23, 8, 9, 25, 24, 9, 10, 26, 25, 10, 11, 27, 26, 11, 12, 28, 27, 12, 13, 29, 28, 13, 14, 30, 29, 14, 15, 31, 30, 15, 16, 32, 31, 16, 1, 17, 32, 17, 18, 34, 33, 18, 19, 35, 34, 19, 20, 36, 35, 20, 21, 37, 36, 21, 22, 38, 37, 22, 23, 39, 38, 23, 24, 40, 39, 24, 25, 41, 40, 25, 26, 42, 41, 26, 27, 43, 42, 27, 28, 44, 43, 28, 29, 45, 44, 29, 30, 46, 45, 30, 31, 47, 46, 31, 32, 48, 47, 32, 17, 33, 48, 33, 34, 50, 49, 34, 35, 51, 50, 35, 36, 52, 51, 36, 37, 53, 52, 37, 38, 54, 53, 38, 39, 55, 54, 39, 40, 56, 55, 40, 41, 57, 56, 41, 42, 58, 57, 42, 43, 59, 58, 43, 44, 60, 59, 44, 45, 61, 60, 45, 46, 62, 61, 46, 47, 63, 62, 47, 48, 64, 63, 48, 33, 49, 64, 49, 50, 66, 65, 50, 51, 67, 66, 51, 52, 68, 67, 52, 53, 69, 68, 53, 54, 70, 69, 54, 55, 71, 70, 55, 56, 72, 71, 56, 57, 73, 72, 57, 58, 74, 73, 58, 59, 75, 74, 59, 60, 76, 75, 60, 61, 77, 76, 61, 62, 78, 77, 62, 63, 79, 78, 63, 64, 80, 79, 64, 49, 65, 80, 65, 66, 82, 81, 66, 67, 83, 82, 67, 68, 84, 83, 68, 69, 85, 84, 69, 70, 86, 85, 70, 71, 87, 86, 71, 72, 88, 87, 72, 73, 89, 88, 73, 74, 90, 89, 74, 75, 91, 90, 75, 76, 92, 91, 76, 77, 93, 92, 77, 78, 94, 93, 78, 79, 95, 94, 79, 80, 96, 95, 80, 65, 81, 96, 81, 82, 98, 97, 82, 83, 99, 98, 83, 84, 100, 99, 84, 85, 101, 100, 85, 86, 102, 101, 86, 87, 103, 102, 87, 88, 104, 103, 88, 89, 105, 104, 89, 90, 106, 105, 90, 91, 107, 106, 91, 92, 108, 107, 92, 93, 109, 108, 93, 94, 110, 109, 94, 95, 111, 110, 95, 96, 112, 111, 96, 81, 97, 112, 97, 98, 114, 113, 98, 99, 115, 114, 99, 100, 116, 115, 100, 101, 117, 116, 101, 102, 118, 117, 102, 103, 119, 118, 103, 104, 120, 119, 104, 105, 121, 120, 105, 106, 122, 121, 106, 107, 123, 122, 107, 108, 124, 123, 108, 109, 125, 124, 109, 110, 126, 125, 110, 111, 127, 126, 111, 112, 128, 127, 112, 97, 113, 128, 113, 114, 130, 129, 114, 115, 131, 130, 115, 116, 132, 131, 116, 117, 133, 132, 117, 118, 134, 133, 118, 119, 135, 134, 119, 120, 136, 135, 120, 121, 137, 136, 121, 122, 138, 137, 122, 123, 139, 138, 123, 124, 140, 139, 124, 125, 141, 140, 125, 126, 142, 141, 126, 127, 143, 142, 127, 128, 144, 143, 128, 113, 129, 144, 145, 130, 129, 145, 131, 130, 145, 132, 131, 145, 133, 132, 145, 134, 133, 145, 135, 134, 145, 136, 135, 145, 137, 136, 145, 138, 137, 145, 139, 138, 145, 140, 139, 145, 141, 140, 145, 142, 141, 145, 143, 142, 145, 144, 143, 145, 129, 144]
        rel material:binding = </TreeOak/Materials/Mat_Foliage>
        point3f[] points = [(0, 1.5, 0), (0.4635255, 1.4265847, 0), (0.4282417, 1.4265847, 0.17738353), (0.327762, 1.4265847, 0.327762), (0.17738353, 1.4265847, 0.4282417), (2.838275e-17, 1.4265847, 0.4635255), (-0.17738353, 1.4265847, 0.4282417), (-0.327762, 1.4265847, 0.327762), (-0.4282417, 1.4265847, 0.17738353), (-0.4635255, 1.4265847, 5.67655e-17), (-0.4282417, 1.4265847, -0.17738353), (-0.327762, 1.4265847, -0.327762), (-0.17738353, 1.4265847, -0.4282417), (-8.514825e-17, 1.4265847, -0.4635255), (0.17738353, 1.4265847, -0.4282417), (0.327762, 1.4265847, -0.327762), (0.4282417, 1.4265847, -0.17738353), (0.88167787, 1.2135255, 0), (0.81456417, 1.2135255, 0.3374035), (0.6234404, 1.2135255, 0.6234404), (0.3374035, 1.2135255, 0.81456417), (5.39872e-17, 1.2135255, 0.88167787), (-0.3374035, 1.2135255, 0.81456417), (-0.6234404, 1.2135255, 0.6234404), (-0.81456417, 1.2135255, 0.3374035), (-0.88167787, 1.2135255, 1.079744e-16), (-0.81456417, 1.2135255, -0.3374035), (-0.6234404, 1.2135255, -0.6234404), (-0.3374035, 1.2135255, -0.81456417), (-1.6196159e-16, 1.2135255, -0.88167787), (0.3374035, 1.2135255, -0.81456417), (0.6234404, 1.2135255, -0.6234404), (0.81456417, 1.2135255, -0.3374035), (1.2135255, 0.88167787, 0), (1.1211513, 0.88167787, 0.4643961), (0.8580921, 0.88167787, 0.8580921), (0.4643961, 0.88167787, 1.1211513), (7.4307004e-17, 0.88167787, 1.2135255), (-0.4643961, 0.88167787, 1.1211513), (-0.8580921, 0.88167787, 0.8580921), (-1.1211513, 0.88167787, 0.4643961), (-1.2135255, 0.88167787, 1.4861401e-16), (-1.1211513, 0.88167787, -0.4643961), (-0.8580921, 0.88167787, -0.8580921), (-0.4643961, 0.88167787, -1.1211513), (-2.2292102e-16, 0.88167787, -1.2135255), (0.4643961, 0.88167787, -1.1211513), (0.8580921, 0.88167787, -0.8580921), (1.1211513, 0.88167787, -0.4643961), (1.4265847, 0.4635255, 0), (1.3179924, 0.4635255, 0.5459304), (1.0087478, 0.4635255, 1.0087478), (0.5459304, 0.4635255, 1.3179924), (8.7353125e-17, 0.4635255, 1.4265847), (-0.5459304, 0.4635255, 1.3179924), (-1.0087478, 0.4635255, 1.0087478), (-1.3179924, 0.4635255, 0.5459304), (-1.4265847, 0.4635255, 1.7470625e-16), (-1.3179924, 0.4635255, -0.5459304), (-1.0087478, 0.4635255, -1.0087478), (-0.5459304, 0.4635255, -1.3179924), (-2.6205937e-16, 0.4635255, -1.4265847), (0.5459304, 0.4635255, -1.3179924), (1.0087478, 0.4635255, -1.0087478), (1.3179924, 0.4635255, -0.5459304), (1.5, 9.184851e-17, 0), (1.3858193, 9.184851e-17, 0.57402515), (1.0606601, 9.184851e-17, 1.0606601), (0.57402515, 9.184851e-17, 1.3858193), (9.184851e-17, 9.184851e-17, 1.5), (-0.57402515, 9.184851e-17, 1.3858193), (-1.0606601, 9.184851e-17, 1.0606601), (-1.3858193, 9.184851e-17, 0.57402515), (-1.5, 9.184851e-17, 1.8369701e-16), (-1.3858193, 9.184851e-17, -0.57402515), (-1.0606601, 9.184851e-17, -1.0606601), (-0.57402515, 9.184851e-17, -1.3858193), (-2.7554554e-16, 9.184851e-17, -1.5), (0.57402515, 9.184851e-17, -1.3858193), (1.0606601, 9.184851e-17, -1.0606601), (1.3858193, 9.184851e-17, -0.57402515), (1.4265847, -0.4635255, 0), (1.3179924, -0.4635255, 0.5459304), (1.0087478, -0.4635255, 1.0087478), (0.5459304, -0.4635255, 1.3179924), (8.7353125e-17, -0.4635255, 1.4265847), (-0.5459304, -0.4635255, 1.3179924), (-1.0087478, -0.4635255, 1.0087478), (-1.3179924, -0.4635255, 0.5459304), (-1.4265847, -0.4635255, 1.7470625e-16), (-1.3179924, -0.4635255, -0.5459304), (-1.0087478, -0.4635255, -1.0087478), (-0.5459304, -0.4635255, -1.3179924), (-2.6205937e-16, -0.4635255, -1.4265847), (0.5459304, -0.4635255, -1.3179924), (1.0087478, -0.4635255, -1.0087478), (1.3179924, -0.4635255, -0.5459304), (1.2135255, -0.88167787, 0), (1.1211513, -0.88167787, 0.4643961), (0.8580921, -0.88167787, 0.8580921), (0.4643961, -0.88167787, 1.1211513), (7.4307004e-17, -0.88167787, 1.2135255), (-0.4643961, -0.88167787, 1.1211513), (-0.8580921, -0.88167787, 0.8580921), (-1.1211513, -0.88167787, 0.4643961), (-1.2135255, -0.88167787, 1.4861401e-16), (-1.1211513, -0.88167787, -0.4643961), (-0.8580921, -0.88167787, -0.8580921), (-0.4643961, -0.88167787, -1.1211513), (-2.2292102e-16, -0.88167787, -1.2135255), (0.4643961, -0.88167787, -1.1211513), (0.8580921, -0.88167787, -0.8580921), (1.1211513, -0.88167787, -0.4643961), (0.88167787, -1.2135255, 0), (0.81456417, -1.2135255, 0.3374035), (0.6234404, -1.2135255, 0.6234404), (0.3374035, -1.2135255, 0.81456417), (5.39872e-17, -1.2135255, 0.88167787), (-0.3374035, -1.2135255, 0.81456417), (-0.6234404, -1.2135255, 0.6234404), (-0.81456417, -1.2135255, 0.3374035), (-0.88167787, -1.2135255, 1.079744e-16), (-0.81456417, -1.2135255, -0.3374035), (-0.6234404, -1.2135255, -0.6234404), (-0.3374035, -1.2135255, -0.81456417), (-1.6196159e-16, -1.2135255, -0.88167787), (0.3374035, -1.2135255, -0.81456417), (0.6234404, -1.2135255, -0.6234404), (0.81456417, -1.2135255, -0.3374035), (0.4635255, -1.4265847, 0), (0.4282417, -1.4265847, 0.17738353), (0.327762, -1.4265847, 0.327762), (0.17738353, -1.4265847, 0.4282417), (2.838275e-17, -1.4265847, 0.4635255), (-0.17738353, -1.4265847, 0.4282417), (-0.327762, -1.4265847, 0.327762), (-0.4282417, -1.4265847, 0.17738353), (-0.4635255, -1.4265847, 5.67655e-17), (-0.4282417, -1.4265847, -0.17738353), (-0.327762, -1.4265847, -0.327762), (-0.17738353, -1.4265847, -0.4282417), (-8.514825e-17, -1.4265847, -0.4635255), (0.17738353, -1.4265847, -0.4282417), (0.327762, -1.4265847, -0.327762), (0.4282417, -1.4265847, -0.17738353), (0, -1.5, 0)]
        uniform token subdivisionScheme = "none"
        float3 xformOp:scale = (1.2, 0.9, 1.2)
        double3 xformOp:translate = (0, 3, 0)
        uniform token[] xformOpOrder = ["xformOp:translate", "xformOp:scale"]
    }
}

