#usda 1.0
(
    defaultPrim = "TreeBirch"
    metersPerUnit = 1
    upAxis = "Y"
)

def Xform "TreeBirch"
{
    def Scope "Materials"
    {
        def Material "Mat_Trunk"
        {
            token outputs:surface.connect = </TreeBirch/Materials/Mat_Trunk/Surface.outputs:surface>

            def Shader "Surface"
            {
                uniform token info:id = "UsdPreviewSurface"
                color3f inputs:diffuseColor = (0.92, 0.9, 0.85)
                float inputs:metallic = 0
                float inputs:roughness = 0.9
                token outputs:surface
            }
        }

        def Material "Mat_Foliage"
        {
            token outputs:surface.connect = </TreeBirch/Materials/Mat_Foliage/Surface.outputs:surface>

            def Shader "Surface"
            {
                uniform token info:id = "UsdPreviewSurface"
                color3f inputs:diffuseColor = (0.45, 0.62, 0.28)
                float inputs:metallic = 0
                float inputs:roughness = 0.8
                token outputs:surface
            }
        }
    }

    def Mesh "Trunk"
    {
        int[] faceVertexCounts = [4, 3, 3, 4, 3, 3, 4, 3, 3, 4, 3, 3, 4, 3, 3, 4, 3, 3, 4, 3, 3, 4, 3, 3, 4, 3, 3, 4, 3, 3, 4, 3, 3, 4, 3, 3]
        int[] faceVertexIndices = [0, 2, 3, 1, 24, 2, 0, 25, 1, 3, 2, 4, 5, 3, 24, 4, 2, 25, 3, 5, 4, 6, 7, 5, 24, 6, 4, 25, 5, 7, 6, 8, 9, 7, 24, 8, 6, 25, 7, 9, 8, 10, 11, 9, 24, 10, 8, 25, 9, 11, 10, 12, 13, 11, 24, 12, 10, 25, 11, 13, 12, 14, 15, 13, 24, 14, 12, 25, 13, 15, 14, 16, 17, 15, 24, 16, 14, 25, 15, 17, 16, 18, 19, 17, 24, 18, 16, 25, 17, 19, 18, 20, 21, 19, 24, 20, 18, 25, 19, 21, 20, 22, 23, 21, 24, 22, 20, 25, 21, 23, 22, 0, 1, 23, 24, 0, 22, 25, 23, 1]
        rel material:binding = </TreeBirch/Materials/Mat_Trunk>
        point3f[] points = [(0.14, 0, 0), (0.14, 3.2, 0), (0.12124356, 0, 0.07), (0.12124356, 3.2, 0.07), (0.07, 0, 0.12124356), (0.07, 3.2, 0.12124356), (8.572528e-18, 0, 0.14), (8.572528e-18, 3.2, 0.14), (-0.07, 0, 0.12124356), (-0.07, 3.2, 0.12124356), (-0.12124356, 0, 0.07), (-0.12124356, 3.2, 0.07), (-0.14, 0, 1.7145055e-17), (-0.14, 3.2, 1.7145055e-17), (-0.12124356, 0, -0.07), (-0.12124356, 3.2, -0.07), (-0.07, 0, -0.12124356), (-0.07, 3.2, -0.12124356), (-2.5717583e-17, 0, -0.14), (-2.5717583e-17, 3.2, -0.14), (0.07, 0, -0.12124356), (0.07, 3.2, -0.12124356), (0.12124356, 0, -0.07), (0.12124356, 3.2, -0.07), (0, 0, 0), (0, 3.2, 0)]
        uniform token subdivisionScheme = "none"
    }

    def Mesh "Foliage"
    {
        int[] faceVertexCounts = [3, 3, 3, 3, 3, 3, 3, 3, 3, 3, 3, 3, 3, 3, 3, 3, 3, 3, 3, 3, 3, 3, 3, 3, 3, 3, 3, 3]
        int[] faceVertexIndices = [0, 1, 14, 15, 1, 0, 1, 2, 14, 15, 2, 1, 2, 3, 14, 15, 3, 2, 3, 4, 14, 15, 4, 3, 4, 5, 14, 15, 5, 4, 5, 6, 14, 15, 6, 5, 6, 7, 14, 15, 7, 6, 7, 8, 14, 15, 8, 7, 8, 9, 14, 15, 9, 8, 9, 10, 14, 15, 10, 9, 10, 11, 14, 15, 11, 10, 11, 12, 14, 15, 12, 11, 12, 13, 14, 15, 13, 12, 13, 0, 14, 15, 0, 13]
        rel material:binding = </TreeBirch/Materials/Mat_Foliage>
        point3f[] points = [(0.95, 0, 0), (0.85592043, 0, 0.41218954), (0.5923153, 0, 0.7427399), (0.21139489, 0, 0.9261815), (-0.21139489, 0, 0.9261815), (-0.5923153, 0, 0.7427399), (-0.85592043, 0, 0.41218954), (-0.95, 0, 1.1634144e-16), (-0.85592043, 0, -0.41218954), (-0.5923153, 0, -0.7427399), (-0.21139489, 0, -0.9261815), (0.21139489, 0, -0.9261815), (0.5923153, 0, -0.7427399), (0.85592043, 0, -0.41218954), (0, 1.6, 0), (0, 0, 0)]
        uniform token subdivisionScheme = "none"
        double3 xformOp:translate = (0, 2.8, 0)
        uniform token[] xformOpOrder = ["xformOp:translate"]
    }
}

