#usda 1.0
(
    defaultPrim = "TreePine"
    metersPerUnit = 1
    upAxis = "Y"
)

def Xform "TreePine"
{
    def Scope "Materials"
    {
        def Material "Mat_Trunk"
        {
            token outputs:surface.connect = </TreePine/Materials/Mat_Trunk/Surface.outputs:surface>

            def Shader "Surface"
            {
                uniform token info:id = "UsdPreviewSurface"
                color3f inputs:diffuseColor = (0.32, 0.2, 0.12)
                float inputs:metallic = 0
                float inputs:roughness = 0.85
                token outputs:surface
            }
        }

        def Material "Mat_Foliage"
        {
            token outputs:surface.connect = </TreePine/Materials/Mat_Foliage/Surface.outputs:surface>

            def Shader "Surface"
            {
                uniform token info:id = "UsdPreviewSurface"
                color3f inputs:diffuseColor = (0.1, 0.32, 0.14)
                float inputs:metallic = 0
                float inputs:roughness = 0.8
                token outputs:surface
            }
        }
    }

    def Mesh "Trunk"
    {
        int[] faceVertexCounts = [4, 3, 3, 4, 3, 3, 4, 3, 3, 4, 3, 3, 4, 3, 3, 4, 3, 3, 4, 3, 3, 4, 3, 3, 4, 3, 3, 4, 3, 3, 4, 3, 3, 4, 3, 3]
        int[] faceVertexIndices = [0, 2, 3, 1, 24, 2, 0, 25, 1, 3, 2, 4, 5, 3, 24, 4, 2, 25, 3, 5, 4, 6, 7, 5, 24, 6, 4, 25, 5, 7, 6, 8, 9, 7, 24, 8, 6, 25, 7, 9, 8, 10, 11, 9, 24, 10, 8, 25, 9, 11, 10, 12, 13, 11, 24, 12, 10, 25, 11, 13, 12, 14, 15, 13, 24, 14, 12, 25, 13, 15, 14, 16, 17, 15, 24, 16, 14, 25, 15, 17, 16, 18, 19, 17, 24, 18, 16, 25, 17, 19, 18, 20, 21, 19, 24, 20, 18, 25, 19, 21, 20, 22, 23, 21, 24, 22, 20, 25, 21, 23, 22, 0, 1, 23, 24, 0, 22, 25, 23, 1]
        rel material:binding = </TreePine/Materials/Mat_Trunk>
        point3f[] points = [(0.18, 0, 0), (0.18, 2, 0), (0.15588458, 0, 0.09), (0.15588458, 2, 0.09), (0.09, 0, 0.15588458), (0.09, 2, 0.15588458), (1.1021821e-17, 0, 0.18), (1.1021821e-17, 2, 0.18), (-0.09, 0, 0.15588458), (-0.09, 2, 0.15588458), (-0.15588458, 0, 0.09), (-0.15588458, 2, 0.09), (-0.18, 0, 2.2043642e-17), (-0.18, 2, 2.2043642e-17), (-0.15588458, 0, -0.09), (-0.15588458, 2, -0.09), (-0.09, 0, -0.15588458), (-0.09, 2, -0.15588458), (-3.3065463e-17, 0, -0.18), (-3.3065463e-17, 2, -0.18), (0.09, 0, -0.15588458), (0.09, 2, -0.15588458), (0.15588458, 0, -0.09), (0.15588458, 2, -0.09), (0, 0, 0), (0, 2, 0)]
        uniform token subdivisionScheme = "none"
    }

    def Mesh "FoliageBottom"
    {
        int[] faceVertexCounts = [3, 3, 3, 3, 3, 3, 3, 3, 3, 3, 3, 3, 3, 3, 3, 3, 3, 3, 3, 3, 3, 3, 3, 3, 3, 3, 3, 3]
        int[] faceVertexIndices = [0, 1, 14, 15, 1, 0, 1, 2, 14, 15, 2, 1, 2, 3, 14, 15, 3, 2, 3, 4, 14, 15, 4, 3, 4, 5, 14, 15, 5, 4, 5, 6, 14, 15, 6, 5, 6, 7, 14, 15, 7, 6, 7, 8, 14, 15, 8, 7, 8, 9, 14, 15, 9, 8, 9, 10, 14, 15, 10, 9, 10, 11, 14, 15, 11, 10, 11, 12, 14, 15, 12, 11, 12, 13, 14, 15, 13, 12, 13, 0, 14, 15, 0, 13]
        rel material:binding = </TreePine/Materials/Mat_Foliage>
        point3f[] points = [(1.1, 0, 0), (0.99106574, 0, 0.47727212), (0.68583876, 0, 0.8600146), (0.24477303, 0, 1.0724207), (-0.24477303, 0, 1.0724207), (-0.68583876, 0, 0.8600146), (-0.99106574, 0, 0.47727212), (-1.1, 0, 1.3471115e-16), (-0.99106574, 0, -0.47727212), (-0.68583876, 0, -0.8600146), (-0.24477303, 0, -1.0724207), (0.24477303, 0, -1.0724207), (0.68583876, 0, -0.8600146), (0.99106574, 0, -0.47727212), (0, 1.4, 0), (0, 0, 0)]
        uniform token subdivisionScheme = "none"
        double3 xformOp:translate = (0, 1.6, 0)
        uniform token[] xformOpOrder = ["xformOp:translate"]
    }

    def Mesh "FoliageMid"
    {
        int[] faceVertexCounts = [3, 3, 3, 3, 3, 3, 3, 3, 3, 3, 3, 3, 3, 3, 3, 3, 3, 3, 3, 3, 3, 3, 3, 3, 3, 3, 3, 3]
        int[] faceVertexIndices = [0, 1, 14, 15, 1, 0, 1, 2, 14, 15, 2, 1, 2, 3, 14, 15, 3, 2, 3, 4, 14, 15, 4, 3, 4, 5, 14, 15, 5, 4, 5, 6, 14, 15, 6, 5, 6, 7, 14, 15, 7, 6, 7, 8, 14, 15, 8, 7, 8, 9, 14, 15, 9, 8, 9, 10, 14, 15, 10, 9, 10, 11, 14, 15, 11, 10, 11, 12, 14, 15, 12, 11, 12, 13, 14, 15, 13, 12, 13, 0, 14, 15, 0, 13]
        rel material:binding = </TreePine/Materials/Mat_Foliage>
        point3f[] points = [(0.85, 0, 0), (0.76582354, 0, 0.36880118), (0.52996635, 0, 0.66455674), (0.1891428, 0, 0.82868874), (-0.1891428, 0, 0.82868874), (-0.52996635, 0, 0.66455674), (-0.76582354, 0, 0.36880118), (-0.85, 0, 1.04094976e-16), (-0.76582354, 0, -0.36880118), (-0.52996635, 0, -0.66455674), (-0.1891428, 0, -0.82868874), (0.1891428, 0, -0.82868874), (0.52996635, 0, -0.66455674), (0.76582354, 0, -0.36880118), (0, 1.2, 0), (0, 0, 0)]
        uniform token subdivisionScheme = "none"
        double3 xformOp:translate = (0, 2.6, 0)
        uniform token[] xformOpOrder = ["xformOp:translate"]
    }

    def Mesh "FoliageTop"
    {
        int[] faceVertexCounts = [3, 3, 3, 3, 3, 3, 3, 3, 3, 3, 3, 3, 3, 3, 3, 3, 3, 3, 3, 3, 3, 3, 3, 3, 3, 3, 3, 3]
        int[] faceVertexIndices = [0, 1, 14, 15, 1, 0, 1, 2, 14, 15, 2, 1, 2, 3, 14, 15, 3, 2, 3, 4, 14, 15, 4, 3, 4, 5, 14, 15, 5, 4, 5, 6, 14, 15, 6, 5, 6, 7, 14, 15, 7, 6, 7, 8, 14, 15, 8, 7, 8, 9, 14, 15, 9, 8, 9, 10, 14, 15, 10, 9, 10, 11, 14, 15, 11, 10, 11, 12, 14, 15, 12, 11, 12, 13, 14, 15, 13, 12, 13, 0, 14, 15, 0, 13]
        rel material:binding = </TreePine/Materials/Mat_Foliage>
        point3f[] points = [(0.55, 0, 0), (0.49553287, 0, 0.23863606), (0.34291938, 0, 0.4300073), (0.122386515, 0, 0.53621036), (-0.122386515, 0, 0.53621036), (-0.34291938, 0, 0.4300073), (-0.49553287, 0, 0.23863606), (-0.55, 0, 6.735558e-17), (-0.49553287, 0, -0.23863606), (-0.34291938, 0, -0.4300073), (-0.122386515, 0, -0.53621036), (0.122386515, 0, -0.53621036), (0.34291938, 0, -0.4300073), (0.49553287, 0, -0.23863606), (0, 1, 0), (0, 0, 0)]
        uniform token subdivisionScheme = "none"
        double3 xformOp:translate = (0, 3.6, 0)
        uniform token[] xformOpOrder = ["xformOp:translate"]
    }
}

