#usda 1.0
(
    defaultPrim = "Forest"
    doc = "TP3 ST2SNE - Scene de foret structuree avec references OpenUSD. Auteur: Anil BRAUN. Composition exclusivement par references vers des assets externes dans ./assets/. Variations locales (translate, rotateY, scale) sur chaque instance ; overrides ponctuels."
    metersPerUnit = 1
    upAxis = "Y"
)

def Xform "Forest"
{
    def Xform "Ground" (
        prepend references = @./assets/Ground.usda@</Ground>
    )
    {
        double3 xformOp:translate = (0, 0, 0)
        uniform token[] xformOpOrder = ["xformOp:translate"]
    }

    def Xform "Zone_Dense"
    {
        def Xform "Pine_00" (
            customData = {
                string species = "pine"
                string zone = "dense"
            }
            prepend references = @./assets/TreePine.usda@</TreePine>
        )
        {
            float xformOp:rotateY = 99.01055
            float3 xformOp:scale = (0.86160535, 0.86160535, 0.86160535)
            double3 xformOp:translate = (-8.408598023131743, 0, -9.49978489554666)
            uniform token[] xformOpOrder = ["xformOp:translate", "xformOp:rotateY", "xformOp:scale"]
        }

        def Xform "Pine_01" (
            customData = {
                string species = "pine"
                string zone = "dense"
            }
            prepend references = @./assets/TreePine.usda@</TreePine>
        )
        {
            float xformOp:rotateY = 321.18463
            float3 xformOp:scale = (0.7934694, 0.7934694, 0.7934694)
            double3 xformOp:translate = (-6.952931787539814, 0, 3.533989748458225)
            uniform token[] xformOpOrder = ["xformOp:translate", "xformOp:rotateY", "xformOp:scale"]
        }

        def Xform "Pine_02" (
            customData = {
                string species = "pine"
                string zone = "dense"
            }
            prepend references = @./assets/TreePine.usda@</TreePine>
        )
        {
            float xformOp:rotateY = 78.70967
            float3 xformOp:scale = (1.0026777, 1.0026777, 1.0026777)
            double3 xformOp:translate = (-11.671172704720943, 0, -9.404055611238594)
            uniform token[] xformOpOrder = ["xformOp:translate", "xformOp:rotateY", "xformOp:scale"]
        }

        def Xform "Pine_03" (
            customData = {
                string species = "pine"
                string zone = "dense"
            }
            prepend references = @./assets/TreePine.usda@</TreePine>
        )
        {
            float xformOp:rotateY = 233.9584
            float3 xformOp:scale = (1.0224707, 1.0224707, 1.0224707)
            double3 xformOp:translate = (-17.601960454742045, 0, -6.02324698626703)
            uniform token[] xformOpOrder = ["xformOp:translate", "xformOp:rotateY", "xformOp:scale"]
        }

        def Xform "Pine_04" (
            customData = {
                string species = "pine"
                string zone = "dense"
            }
            prepend references = @./assets/TreePine.usda@</TreePine>
        )
        {
            float xformOp:rotateY = 291.39496
            float3 xformOp:scale = (0.7532494, 0.7532494, 0.7532494)
            double3 xformOp:translate = (-14.693390669389549, 0, 1.7853136775181753)
            uniform token[] xformOpOrder = ["xformOp:translate", "xformOp:rotateY", "xformOp:scale"]
        }

        def Xform "Pine_05" (
            customData = {
                string species = "pine"
                string zone = "dense"
            }
            prepend references = @./assets/TreePine.usda@</TreePine>
        )
        {
            float xformOp:rotateY = 122.49019
            float3 xformOp:scale = (0.8277398, 0.8277398, 0.8277398)
            double3 xformOp:translate = (-5.912711222507882, 0, 3.962787899764537)
            uniform token[] xformOpOrder = ["xformOp:translate", "xformOp:rotateY", "xformOp:scale"]
        }

        def Xform "Pine_06" (
            customData = {
                string species = "pine"
                string zone = "dense"
            }
            prepend references = @./assets/TreePine.usda@</TreePine>
        )
        {
            float xformOp:rotateY = 33.388504
            float3 xformOp:scale = (0.7983582, 0.7983582, 0.7983582)
            double3 xformOp:translate = (-3.641803916898281, 0, -3.2681090977474643)
            uniform token[] xformOpOrder = ["xformOp:translate", "xformOp:rotateY", "xformOp:scale"]
        }

        def Xform "Pine_07" (
            customData = {
                string species = "pine"
                string zone = "dense"
            }
            prepend references = @./assets/TreePine.usda@</TreePine>
        )
        {
            float xformOp:rotateY = 290.5662
            float3 xformOp:scale = (1.1148659, 1.1148659, 1.1148659)
            double3 xformOp:translate = (-5.287584504788104, 0, 2.0745206273378223)
            uniform token[] xformOpOrder = ["xformOp:translate", "xformOp:rotateY", "xformOp:scale"]
        }

        def Xform "Pine_08" (
            customData = {
                string species = "pine"
                string zone = "dense"
            }
            prepend references = @./assets/TreePine.usda@</TreePine>
        )
        {
            float xformOp:rotateY = 136.27237
            float3 xformOp:scale = (1.0260203, 1.0260203, 1.0260203)
            double3 xformOp:translate = (-9.95657862817949, 0, 9.462315279587411)
            uniform token[] xformOpOrder = ["xformOp:translate", "xformOp:rotateY", "xformOp:scale"]
        }

        def Xform "Pine_09" (
            customData = {
                string species = "pine"
                string zone = "dense"
            }
            prepend references = @./assets/TreePine.usda@</TreePine>
        )
        {
            float xformOp:rotateY = 310.21448
            float3 xformOp:scale = (1.038676, 1.038676, 1.038676)
            double3 xformOp:translate = (-5.558930036205076, 0, 2.370395047284921)
            uniform token[] xformOpOrder = ["xformOp:translate", "xformOp:rotateY", "xformOp:scale"]
        }

        def Xform "Pine_10" (
            customData = {
                string species = "pine"
                string zone = "dense"
            }
            prepend references = @./assets/TreePine.usda@</TreePine>
        )
        {
            float xformOp:rotateY = 82.04338
            float3 xformOp:scale = (0.894694, 0.894694, 0.894694)
            double3 xformOp:translate = (-7.431422456776147, 0, -9.083512326886755)
            uniform token[] xformOpOrder = ["xformOp:translate", "xformOp:rotateY", "xformOp:scale"]
        }

        def Xform "Pine_11" (
            customData = {
                string species = "pine"
                string zone = "dense"
            }
            prepend references = @./assets/TreePine.usda@</TreePine>
        )
        {
            float xformOp:rotateY = 36.360516
            float3 xformOp:scale = (0.8889868, 0.8889868, 0.8889868)
            double3 xformOp:translate = (-16.803120346145587, 0, -5.344182272779396)
            uniform token[] xformOpOrder = ["xformOp:translate", "xformOp:rotateY", "xformOp:scale"]
        }

        def Xform "Pine_12" (
            customData = {
                string species = "pine"
                string zone = "dense"
            }
            prepend references = @./assets/TreePine.usda@</TreePine>
        )
        {
            float xformOp:rotateY = 133.26515
            float3 xformOp:scale = (0.8547535, 0.8547535, 0.8547535)
            double3 xformOp:translate = (-8.464733336033998, 0, -2.7033564205983147)
            uniform token[] xformOpOrder = ["xformOp:translate", "xformOp:rotateY", "xformOp:scale"]
        }

        def Xform "Pine_13" (
            customData = {
                string species = "pine"
                string zone = "dense"
            }
            prepend references = @./assets/TreePine.usda@</TreePine>
        )
        {
            float xformOp:rotateY = 233.29274
            float3 xformOp:scale = (1.0545655, 1.0545655, 1.0545655)
            double3 xformOp:translate = (-13.995332669263298, 0, 8.73309175424988)
            uniform token[] xformOpOrder = ["xformOp:translate", "xformOp:rotateY", "xformOp:scale"]
        }

        def Xform "Pine_14" (
            customData = {
                string species = "pine"
                string zone = "dense"
            }
            prepend references = @./assets/TreePine.usda@</TreePine>
        )
        {
            float xformOp:rotateY = 58.824898
            float3 xformOp:scale = (0.9397277, 0.9397277, 0.9397277)
            double3 xformOp:translate = (-15.432920277028545, 0, 4.582535959006984)
            uniform token[] xformOpOrder = ["xformOp:translate", "xformOp:rotateY", "xformOp:scale"]
        }

        def Xform "Pine_15" (
            customData = {
                string species = "pine"
                string zone = "dense"
            }
            prepend references = @./assets/TreePine.usda@</TreePine>
        )
        {
            float xformOp:rotateY = 200.5019
            float3 xformOp:scale = (1.0923071, 1.0923071, 1.0923071)
            double3 xformOp:translate = (-3.1571497404510716, 0, 2.7999951970818575)
            uniform token[] xformOpOrder = ["xformOp:translate", "xformOp:rotateY", "xformOp:scale"]
        }

        def Xform "Pine_16" (
            customData = {
                string species = "pine"
                string zone = "dense"
            }
            prepend references = @./assets/TreePine.usda@</TreePine>
        )
        {
            float xformOp:rotateY = 82.457306
            float3 xformOp:scale = (0.7660501, 0.7660501, 0.7660501)
            double3 xformOp:translate = (-5.357221197152857, 0, 5.519998230924896)
            uniform token[] xformOpOrder = ["xformOp:translate", "xformOp:rotateY", "xformOp:scale"]
        }

        def Xform "Pine_17" (
            customData = {
                string species = "pine"
                string zone = "dense"
            }
            prepend references = @./assets/TreePine.usda@</TreePine>
        )
        {
            float xformOp:rotateY = 75.95383
            float3 xformOp:scale = (1.2214549, 1.2214549, 1.2214549)
            double3 xformOp:translate = (-13.268204279113771, 0, -4.645182480485945)
            uniform token[] xformOpOrder = ["xformOp:translate", "xformOp:rotateY", "xformOp:scale"]
        }

        def Xform "Oak_00" (
            customData = {
                string species = "oak"
                string zone = "dense"
            }
            prepend references = @./assets/TreeOak.usda@</TreeOak>
        )
        {
            float xformOp:rotateY = 235.95792
            float3 xformOp:scale = (0.9582528, 0.9582528, 0.9582528)
            double3 xformOp:translate = (-4.854485602909968, 0, -3.706442384030442)
            uniform token[] xformOpOrder = ["xformOp:translate", "xformOp:rotateY", "xformOp:scale"]
        }

        def Xform "Oak_01" (
            customData = {
                string species = "oak"
                string zone = "dense"
            }
            prepend references = @./assets/TreeOak.usda@</TreeOak>
        )
        {
            float xformOp:rotateY = 95.35686
            float3 xformOp:scale = (0.898651, 0.898651, 0.898651)
            double3 xformOp:translate = (-4.281786153891847, 0, -0.8229629482520231)
            uniform token[] xformOpOrder = ["xformOp:translate", "xformOp:rotateY", "xformOp:scale"]
        }

        def Xform "Oak_02" (
            customData = {
                string species = "oak"
                string zone = "dense"
            }
            prepend references = @./assets/TreeOak.usda@</TreeOak>
        )
        {
            float xformOp:rotateY = 210.45096
            float3 xformOp:scale = (1.1591291, 1.1591291, 1.1591291)
            double3 xformOp:translate = (-9.579477987552739, 0, -4.745167829541295)
            uniform token[] xformOpOrder = ["xformOp:translate", "xformOp:rotateY", "xformOp:scale"]
        }

        def Xform "Oak_03" (
            customData = {
                string species = "oak"
                string zone = "dense"
            }
            prepend references = @./assets/TreeOak.usda@</TreeOak>
        )
        {
            float xformOp:rotateY = 359.11353
            float3 xformOp:scale = (1.0038105, 1.0038105, 1.0038105)
            double3 xformOp:translate = (-12.00899242289404, 0, -5.613584816854333)
            uniform token[] xformOpOrder = ["xformOp:translate", "xformOp:rotateY", "xformOp:scale"]
        }

        def Xform "Oak_04" (
            customData = {
                string species = "oak"
                string zone = "dense"
            }
            prepend references = @./assets/TreeOak.usda@</TreeOak>
        )
        {
            float xformOp:rotateY = 39.473686
            float3 xformOp:scale = (1.0509784, 1.0509784, 1.0509784)
            double3 xformOp:translate = (-16.63635881739309, 0, -9.057672491505308)
            uniform token[] xformOpOrder = ["xformOp:translate", "xformOp:rotateY", "xformOp:scale"]
        }

        def Xform "Oak_05" (
            customData = {
                string species = "oak"
                string zone = "dense"
            }
            prepend references = @./assets/TreeOak.usda@</TreeOak>
        )
        {
            float xformOp:rotateY = 22.869974
            float3 xformOp:scale = (0.9526477, 0.9526477, 0.9526477)
            double3 xformOp:translate = (-6.118809534555538, 0, -1.5568006640063192)
            uniform token[] xformOpOrder = ["xformOp:translate", "xformOp:rotateY", "xformOp:scale"]
        }

        def Xform "Oak_06" (
            customData = {
                string species = "oak"
                string zone = "dense"
            }
            prepend references = @./assets/TreeOak.usda@</TreeOak>
        )
        {
            float xformOp:rotateY = 349.58823
            float3 xformOp:scale = (1.1443119, 1.1443119, 1.1443119)
            double3 xformOp:translate = (-3.0581792963985492, 0, 0.5822869019827408)
            uniform token[] xformOpOrder = ["xformOp:translate", "xformOp:rotateY", "xformOp:scale"]
        }

        def Xform "Oak_07" (
            customData = {
                string species = "oak"
                string zone = "dense"
            }
            prepend references = @./assets/TreeOak.usda@</TreeOak>
        )
        {
            float xformOp:rotateY = 245.41573
            float3 xformOp:scale = (1.0147882, 1.0147882, 1.0147882)
            double3 xformOp:translate = (-17.827784670857707, 0, 4.414436387203892)
            uniform token[] xformOpOrder = ["xformOp:translate", "xformOp:rotateY", "xformOp:scale"]
        }

        def Xform "Oak_08" (
            customData = {
                string species = "oak"
                string zone = "dense"
            }
            prepend references = @./assets/TreeOak.usda@</TreeOak>
        )
        {
            float xformOp:rotateY = 40.158783
            float3 xformOp:scale = (0.9739061, 0.9739061, 0.9739061)
            double3 xformOp:translate = (-13.997622150711859, 0, 2.819235971596161)
            uniform token[] xformOpOrder = ["xformOp:translate", "xformOp:rotateY", "xformOp:scale"]
        }

        def Xform "Oak_09" (
            customData = {
                string species = "oak"
                string zone = "dense"
            }
            prepend references = @./assets/TreeOak.usda@</TreeOak>
        )
        {
            float xformOp:rotateY = 315.30707
            float3 xformOp:scale = (0.90535563, 0.90535563, 0.90535563)
            double3 xformOp:translate = (-11.194144405061904, 0, 9.076318550421604)
            uniform token[] xformOpOrder = ["xformOp:translate", "xformOp:rotateY", "xformOp:scale"]
        }

        def Xform "Bush_00" (
            prepend references = @./assets/Bush.usda@</Bush>
        )
        {
            float xformOp:rotateY = 328.54602
            float3 xformOp:scale = (1.2223111, 1.2223111, 1.2223111)
            double3 xformOp:translate = (-10.491208304245525, 0, -6.426962389397373)
            uniform token[] xformOpOrder = ["xformOp:translate", "xformOp:rotateY", "xformOp:scale"]
        }

        def Xform "Bush_01" (
            prepend references = @./assets/Bush.usda@</Bush>
        )
        {
            float xformOp:rotateY = 219.22928
            float3 xformOp:scale = (0.7917036, 0.7917036, 0.7917036)
            double3 xformOp:translate = (-13.523328128270506, 0, 2.7789898973201037)
            uniform token[] xformOpOrder = ["xformOp:translate", "xformOp:rotateY", "xformOp:scale"]
        }

        def Xform "Bush_02" (
            prepend references = @./assets/Bush.usda@</Bush>
        )
        {
            float xformOp:rotateY = 280.30554
            float3 xformOp:scale = (1.0182122, 1.0182122, 1.0182122)
            double3 xformOp:translate = (-6.5623379988727315, 0, 0.7875806023925147)
            uniform token[] xformOpOrder = ["xformOp:translate", "xformOp:rotateY", "xformOp:scale"]
        }

        def Xform "Bush_03" (
            prepend references = @./assets/Bush.usda@</Bush>
        )
        {
            float xformOp:rotateY = 7.011627
            float3 xformOp:scale = (1.2574592, 1.2574592, 1.2574592)
            double3 xformOp:translate = (-17.991421558080848, 0, -3.516878859906538)
            uniform token[] xformOpOrder = ["xformOp:translate", "xformOp:rotateY", "xformOp:scale"]
        }

        def Xform "Bush_04" (
            prepend references = @./assets/Bush.usda@</Bush>
        )
        {
            float xformOp:rotateY = 110.705086
            float3 xformOp:scale = (0.7347551, 0.7347551, 0.7347551)
            double3 xformOp:translate = (-4.819171832652236, 0, 6.6333105872235905)
            uniform token[] xformOpOrder = ["xformOp:translate", "xformOp:rotateY", "xformOp:scale"]
        }

        def Xform "Bush_05" (
            prepend references = @./assets/Bush.usda@</Bush>
        )
        {
            float xformOp:rotateY = 30.835243
            float3 xformOp:scale = (0.99159425, 0.99159425, 0.99159425)
            double3 xformOp:translate = (-4.829856011939391, 0, 8.938988905959881)
            uniform token[] xformOpOrder = ["xformOp:translate", "xformOp:rotateY", "xformOp:scale"]
        }

        def Xform "Fern_00" (
            prepend references = @./assets/Fern.usda@</Fern>
        )
        {
            float xformOp:rotateY = 275.7004
            float3 xformOp:scale = (0.81419575, 0.81419575, 0.81419575)
            double3 xformOp:translate = (-16.961812222974245, 0, 5.212043305144631)
            uniform token[] xformOpOrder = ["xformOp:translate", "xformOp:rotateY", "xformOp:scale"]
        }

        def Xform "Fern_01" (
            prepend references = @./assets/Fern.usda@</Fern>
        )
        {
            float xformOp:rotateY = 95.42039
            float3 xformOp:scale = (1.1862165, 1.1862165, 1.1862165)
            double3 xformOp:translate = (-10.87076432851903, 0, 0.9960718698988771)
            uniform token[] xformOpOrder = ["xformOp:translate", "xformOp:rotateY", "xformOp:scale"]
        }

        def Xform "Fern_02" (
            prepend references = @./assets/Fern.usda@</Fern>
        )
        {
            float xformOp:rotateY = 194.14659
            float3 xformOp:scale = (1.1149656, 1.1149656, 1.1149656)
            double3 xformOp:translate = (-11.652930896986696, 0, -5.764035891158359)
            uniform token[] xformOpOrder = ["xformOp:translate", "xformOp:rotateY", "xformOp:scale"]
        }

        def Xform "Fern_03" (
            prepend references = @./assets/Fern.usda@</Fern>
        )
        {
            float xformOp:rotateY = 358.25375
            float3 xformOp:scale = (1.074939, 1.074939, 1.074939)
            double3 xformOp:translate = (-14.982734049154562, 0, -3.7656741739821005)
            uniform token[] xformOpOrder = ["xformOp:translate", "xformOp:rotateY", "xformOp:scale"]
        }

        def Xform "Moss_00" (
            prepend references = @./assets/Moss.usda@</Moss>
        )
        {
            float xformOp:rotateY = 43.561512
            float3 xformOp:scale = (0.77975786, 0.77975786, 0.77975786)
            double3 xformOp:translate = (-11.42849874128244, 0, 0.35151682071181156)
            uniform token[] xformOpOrder = ["xformOp:translate", "xformOp:rotateY", "xformOp:scale"]
        }

        def Xform "Moss_01" (
            prepend references = @./assets/Moss.usda@</Moss>
        )
        {
            float xformOp:rotateY = 82.8413
            float3 xformOp:scale = (0.7761739, 0.7761739, 0.7761739)
            double3 xformOp:translate = (-12.92871656778817, 0, 1.7661743691446663)
            uniform token[] xformOpOrder = ["xformOp:translate", "xformOp:rotateY", "xformOp:scale"]
        }

        def Xform "Moss_02" (
            prepend references = @./assets/Moss.usda@</Moss>
        )
        {
            float xformOp:rotateY = 82.419044
            float3 xformOp:scale = (1.324336, 1.324336, 1.324336)
            double3 xformOp:translate = (-16.935103709864514, 0, 2.6220591454019786)
            uniform token[] xformOpOrder = ["xformOp:translate", "xformOp:rotateY", "xformOp:scale"]
        }

        def Xform "Moss_03" (
            prepend references = @./assets/Moss.usda@</Moss>
        )
        {
            float xformOp:rotateY = 85.68167
            float3 xformOp:scale = (1.1351823, 1.1351823, 1.1351823)
            double3 xformOp:translate = (-5.105468996193803, 0, -8.582853002226932)
            uniform token[] xformOpOrder = ["xformOp:translate", "xformOp:rotateY", "xformOp:scale"]
        }
    }

    def Xform "Zone_Clearing"
    {
        def Xform "PerimeterTree_00" (
            prepend references = @./assets/TreeOak.usda@</TreeOak>
        )
        {
            float xformOp:rotateY = 336.78513
            float3 xformOp:scale = (1.1234442, 1.1234442, 1.1234442)
            double3 xformOp:translate = (-2.342915831155474, 0, -6.44122578152997)
            uniform token[] xformOpOrder = ["xformOp:translate", "xformOp:rotateY", "xformOp:scale"]
        }

        def Xform "PerimeterTree_01" (
            prepend references = @./assets/TreeBirch.usda@</TreeBirch>
        )
        {
            float xformOp:rotateY = 290.6989
            float3 xformOp:scale = (0.9978353, 0.9978353, 0.9978353)
            double3 xformOp:translate = (-2.032794768425847, 0, 6.341543309148904)
            uniform token[] xformOpOrder = ["xformOp:translate", "xformOp:rotateY", "xformOp:scale"]
        }

        def Xform "PerimeterTree_02" (
            prepend references = @./assets/TreeOak.usda@</TreeOak>
        )
        {
            float xformOp:rotateY = 152.48831
            float3 xformOp:scale = (1.0891181, 1.0891181, 1.0891181)
            double3 xformOp:translate = (7.516316977074588, 0, -6.082738581112347)
            uniform token[] xformOpOrder = ["xformOp:translate", "xformOp:rotateY", "xformOp:scale"]
        }

        def Xform "PerimeterTree_03" (
            prepend references = @./assets/TreeBirch.usda@</TreeBirch>
        )
        {
            float xformOp:rotateY = 354.29947
            float3 xformOp:scale = (0.9674779, 0.9674779, 0.9674779)
            double3 xformOp:translate = (8.27489101935182, 0, 6.208037456751962)
            uniform token[] xformOpOrder = ["xformOp:translate", "xformOp:rotateY", "xformOp:scale"]
        }

        def Xform "AutumnOak_00" (
            customData = {
                string variant = "autumn"
            }
            prepend references = @./assets/TreeOak.usda@</TreeOak>
        )
        {
            float xformOp:rotateY = 120
            double3 xformOp:translate = (3.5, 0, -2.5)
            uniform token[] xformOpOrder = ["xformOp:translate", "xformOp:rotateY"]

            over "Materials"
            {
                over "Mat_Foliage"
                {
                    over "Surface"
                    {
                        color3f inputs:diffuseColor = (0.85, 0.45, 0.1)
                    }
                }
            }
        }

        def Xform "AutumnOak_01" (
            customData = {
                string variant = "autumn"
            }
            prepend references = @./assets/TreeOak.usda@</TreeOak>
        )
        {
            float xformOp:rotateY = 200
            float3 xformOp:scale = (0.9, 0.9, 0.9)
            double3 xformOp:translate = (5.5, 0, 1)
            uniform token[] xformOpOrder = ["xformOp:translate", "xformOp:rotateY", "xformOp:scale"]

            over "Materials"
            {
                over "Mat_Foliage"
                {
                    over "Surface"
                    {
                        color3f inputs:diffuseColor = (0.92, 0.55, 0.05)
                    }
                }
            }
        }

        def Xform "Flower_00" (
            prepend references = @./assets/Flower.usda@</Flower>
        )
        {
            float xformOp:rotateY = 310.20212
            float3 xformOp:scale = (0.8491938, 0.8491938, 0.8491938)
            double3 xformOp:translate = (2.22097025681815, 0, -1.6069739460503687)
            uniform token[] xformOpOrder = ["xformOp:translate", "xformOp:rotateY", "xformOp:scale"]
        }

        def Xform "Flower_01" (
            prepend references = @./assets/Flower.usda@</Flower>
        )
        {
            float xformOp:rotateY = 151.8774
            float3 xformOp:scale = (0.86712706, 0.86712706, 0.86712706)
            double3 xformOp:translate = (0.5216712675264921, 0, -0.5138645216686815)
            uniform token[] xformOpOrder = ["xformOp:translate", "xformOp:rotateY", "xformOp:scale"]
        }

        def Xform "Flower_02" (
            prepend references = @./assets/Flower.usda@</Flower>
        )
        {
            float xformOp:rotateY = 159.52707
            float3 xformOp:scale = (1.2168095, 1.2168095, 1.2168095)
            double3 xformOp:translate = (0.9984515830568039, 0, 4.232655992760128)
            uniform token[] xformOpOrder = ["xformOp:translate", "xformOp:rotateY", "xformOp:scale"]
        }

        def Xform "Flower_03" (
            prepend references = @./assets/Flower.usda@</Flower>
        )
        {
            float xformOp:rotateY = 359.7417
            float3 xformOp:scale = (1.2016165, 1.2016165, 1.2016165)
            double3 xformOp:translate = (3.4026024995987845, 0, -4.494116704751187)
            uniform token[] xformOpOrder = ["xformOp:translate", "xformOp:rotateY", "xformOp:scale"]
        }

        def Xform "Flower_04" (
            prepend references = @./assets/Flower.usda@</Flower>
        )
        {
            float xformOp:rotateY = 305.53046
            float3 xformOp:scale = (0.7997867, 0.7997867, 0.7997867)
            double3 xformOp:translate = (6.75197005827801, 0, 4.263669830081277)
            uniform token[] xformOpOrder = ["xformOp:translate", "xformOp:rotateY", "xformOp:scale"]
        }

        def Xform "Flower_05" (
            prepend references = @./assets/Flower.usda@</Flower>
        )
        {
            float xformOp:rotateY = 144.37451
            float3 xformOp:scale = (0.7351812, 0.7351812, 0.7351812)
            double3 xformOp:translate = (2.8851290036057478, 0, -2.8625270080081835)
            uniform token[] xformOpOrder = ["xformOp:translate", "xformOp:rotateY", "xformOp:scale"]
        }

        def Xform "Flower_06" (
            prepend references = @./assets/Flower.usda@</Flower>
        )
        {
            float xformOp:rotateY = 95.4731
            float3 xformOp:scale = (1.1704423, 1.1704423, 1.1704423)
            double3 xformOp:translate = (2.031784951815329, 0, 4.853088437797259)
            uniform token[] xformOpOrder = ["xformOp:translate", "xformOp:rotateY", "xformOp:scale"]
        }

        def Xform "Flower_07" (
            prepend references = @./assets/Flower.usda@</Flower>
        )
        {
            float xformOp:rotateY = 344.63434
            float3 xformOp:scale = (1.2972536, 1.2972536, 1.2972536)
            double3 xformOp:translate = (2.6400669387131463, 0, -0.7699251400983709)
            uniform token[] xformOpOrder = ["xformOp:translate", "xformOp:rotateY", "xformOp:scale"]
        }

        def Xform "Flower_08" (
            prepend references = @./assets/Flower.usda@</Flower>
        )
        {
            float xformOp:rotateY = 55.726856
            float3 xformOp:scale = (0.8780247, 0.8780247, 0.8780247)
            double3 xformOp:translate = (3.4461465872449457, 0, 2.18408275296326)
            uniform token[] xformOpOrder = ["xformOp:translate", "xformOp:rotateY", "xformOp:scale"]
        }

        def Xform "Flower_09" (
            prepend references = @./assets/Flower.usda@</Flower>
        )
        {
            float xformOp:rotateY = 195.19028
            float3 xformOp:scale = (1.1487854, 1.1487854, 1.1487854)
            double3 xformOp:translate = (6.749674919753271, 0, 0.7918029081625626)
            uniform token[] xformOpOrder = ["xformOp:translate", "xformOp:rotateY", "xformOp:scale"]
        }

        def Xform "Flower_10" (
            prepend references = @./assets/Flower.usda@</Flower>
        )
        {
            float xformOp:rotateY = 181.02614
            float3 xformOp:scale = (1.2116319, 1.2116319, 1.2116319)
            double3 xformOp:translate = (-0.5426778167401354, 0, 0.8417759445897124)
            uniform token[] xformOpOrder = ["xformOp:translate", "xformOp:rotateY", "xformOp:scale"]
        }

        def Xform "Flower_11" (
            prepend references = @./assets/Flower.usda@</Flower>
        )
        {
            float xformOp:rotateY = 28.840128
            float3 xformOp:scale = (0.811495, 0.811495, 0.811495)
            double3 xformOp:translate = (0.2594618235158661, 0, 4.607789032744504)
            uniform token[] xformOpOrder = ["xformOp:translate", "xformOp:rotateY", "xformOp:scale"]
        }

        def Xform "Flower_12" (
            prepend references = @./assets/Flower.usda@</Flower>
        )
        {
            float xformOp:rotateY = 84.6734
            float3 xformOp:scale = (0.77193195, 0.77193195, 0.77193195)
            double3 xformOp:translate = (3.7602808516002213, 0, 1.7521255360409018)
            uniform token[] xformOpOrder = ["xformOp:translate", "xformOp:rotateY", "xformOp:scale"]
        }

        def Xform "Flower_13" (
            prepend references = @./assets/Flower.usda@</Flower>
        )
        {
            float xformOp:rotateY = 214.0269
            float3 xformOp:scale = (1.0716289, 1.0716289, 1.0716289)
            double3 xformOp:translate = (6.1222985130355, 0, -2.5378465221137514)
            uniform token[] xformOpOrder = ["xformOp:translate", "xformOp:rotateY", "xformOp:scale"]
        }

        def Xform "Flower_14" (
            prepend references = @./assets/Flower.usda@</Flower>
        )
        {
            float xformOp:rotateY = 188.20178
            float3 xformOp:scale = (1.2608237, 1.2608237, 1.2608237)
            double3 xformOp:translate = (2.35379932268698, 0, 0.8367228929122472)
            uniform token[] xformOpOrder = ["xformOp:translate", "xformOp:rotateY", "xformOp:scale"]
        }

        def Xform "Flower_15" (
            prepend references = @./assets/Flower.usda@</Flower>
        )
        {
            float xformOp:rotateY = 85.92694
            float3 xformOp:scale = (0.9374715, 0.9374715, 0.9374715)
            double3 xformOp:translate = (0.6340735953882914, 0, 2.1619180078941476)
            uniform token[] xformOpOrder = ["xformOp:translate", "xformOp:rotateY", "xformOp:scale"]
        }

        def Xform "Flower_16" (
            prepend references = @./assets/Flower.usda@</Flower>
        )
        {
            float xformOp:rotateY = 113.82379
            float3 xformOp:scale = (1.1511186, 1.1511186, 1.1511186)
            double3 xformOp:translate = (4.37352178367977, 0, -2.000029202012378)
            uniform token[] xformOpOrder = ["xformOp:translate", "xformOp:rotateY", "xformOp:scale"]
        }

        def Xform "Flower_17" (
            prepend references = @./assets/Flower.usda@</Flower>
        )
        {
            float xformOp:rotateY = 359.4436
            float3 xformOp:scale = (1.2976578, 1.2976578, 1.2976578)
            double3 xformOp:translate = (-0.4196550840547415, 0, -0.4171447738141385)
            uniform token[] xformOpOrder = ["xformOp:translate", "xformOp:rotateY", "xformOp:scale"]
        }

        def Xform "Flower_18" (
            prepend references = @./assets/Flower.usda@</Flower>
        )
        {
            float xformOp:rotateY = 95.47215
            float3 xformOp:scale = (1.2599556, 1.2599556, 1.2599556)
            double3 xformOp:translate = (-0.413914231202936, 0, -2.8684568773295958)
            uniform token[] xformOpOrder = ["xformOp:translate", "xformOp:rotateY", "xformOp:scale"]
        }

        def Xform "Flower_19" (
            prepend references = @./assets/Flower.usda@</Flower>
        )
        {
            float xformOp:rotateY = 133.02975
            float3 xformOp:scale = (0.7946481, 0.7946481, 0.7946481)
            double3 xformOp:translate = (6.046913389491516, 0, 3.7927024248454284)
            uniform token[] xformOpOrder = ["xformOp:translate", "xformOp:rotateY", "xformOp:scale"]
        }

        def Xform "Fern_00" (
            prepend references = @./assets/Fern.usda@</Fern>
        )
        {
            float xformOp:rotateY = 220.204
            float3 xformOp:scale = (1.1631058, 1.1631058, 1.1631058)
            double3 xformOp:translate = (5.669959637118456, 0, 2.0353992508737093)
            uniform token[] xformOpOrder = ["xformOp:translate", "xformOp:rotateY", "xformOp:scale"]
        }

        def Xform "Fern_01" (
            prepend references = @./assets/Fern.usda@</Fern>
        )
        {
            float xformOp:rotateY = 294.1575
            float3 xformOp:scale = (0.79166454, 0.79166454, 0.79166454)
            double3 xformOp:translate = (4.231810541685861, 0, -4.9217689284784205)
            uniform token[] xformOpOrder = ["xformOp:translate", "xformOp:rotateY", "xformOp:scale"]
        }

        def Xform "Fern_02" (
            prepend references = @./assets/Fern.usda@</Fern>
        )
        {
            float xformOp:rotateY = 48.344803
            float3 xformOp:scale = (0.6923315, 0.6923315, 0.6923315)
            double3 xformOp:translate = (4.307109719728619, 0, 4.389300039271038)
            uniform token[] xformOpOrder = ["xformOp:translate", "xformOp:rotateY", "xformOp:scale"]
        }

        def Xform "Fern_03" (
            prepend references = @./assets/Fern.usda@</Fern>
        )
        {
            float xformOp:rotateY = 98.04536
            float3 xformOp:scale = (0.9566081, 0.9566081, 0.9566081)
            double3 xformOp:translate = (-0.14371217832465888, 0, 0.532236408848159)
            uniform token[] xformOpOrder = ["xformOp:translate", "xformOp:rotateY", "xformOp:scale"]
        }

        def Xform "Fern_04" (
            prepend references = @./assets/Fern.usda@</Fern>
        )
        {
            float xformOp:rotateY = 228.32567
            float3 xformOp:scale = (0.7725513, 0.7725513, 0.7725513)
            double3 xformOp:translate = (4.740897497110383, 0, -2.9640268767254705)
            uniform token[] xformOpOrder = ["xformOp:translate", "xformOp:rotateY", "xformOp:scale"]
        }

        def Xform "Fern_05" (
            prepend references = @./assets/Fern.usda@</Fern>
        )
        {
            float xformOp:rotateY = 304.59735
            float3 xformOp:scale = (0.67984116, 0.67984116, 0.67984116)
            double3 xformOp:translate = (2.9082548171950124, 0, 4.053364910793233)
            uniform token[] xformOpOrder = ["xformOp:translate", "xformOp:rotateY", "xformOp:scale"]
        }

        def Xform "Fern_06" (
            prepend references = @./assets/Fern.usda@</Fern>
        )
        {
            float xformOp:rotateY = 1.2764481
            float3 xformOp:scale = (1.0464044, 1.0464044, 1.0464044)
            double3 xformOp:translate = (2.388606180509811, 0, -2.2331977602774833)
            uniform token[] xformOpOrder = ["xformOp:translate", "xformOp:rotateY", "xformOp:scale"]
        }

        def Xform "Fern_07" (
            prepend references = @./assets/Fern.usda@</Fern>
        )
        {
            float xformOp:rotateY = 266.84314
            float3 xformOp:scale = (0.9279074, 0.9279074, 0.9279074)
            double3 xformOp:translate = (4.096907018411037, 0, -2.380447375656518)
            uniform token[] xformOpOrder = ["xformOp:translate", "xformOp:rotateY", "xformOp:scale"]
        }

        def Xform "BirdNest_01" (
            customData = {
                string wildlife = "nest"
                string zone = "clearing"
            }
            prepend references = @./assets/BirdNest.usda@</BirdNest>
        )
        {
            float xformOp:rotateY = 15
            double3 xformOp:translate = (3, 2.8, 1.5)
            uniform token[] xformOpOrder = ["xformOp:translate", "xformOp:rotateY"]
        }
    }

    def Xform "Zone_Rocky"
    {
        def Xform "Birch_00" (
            prepend references = @./assets/TreeBirch.usda@</TreeBirch>
        )
        {
            float xformOp:rotateY = 27.08779
            float3 xformOp:scale = (1.1532426, 1.1532426, 1.1532426)
            double3 xformOp:translate = (12.276869189806794, 0, -9.806606007833201)
            uniform token[] xformOpOrder = ["xformOp:translate", "xformOp:rotateY", "xformOp:scale"]
        }

        def Xform "Birch_01" (
            prepend references = @./assets/TreeBirch.usda@</TreeBirch>
        )
        {
            float xformOp:rotateY = 300.4542
            float3 xformOp:scale = (1.0330038, 1.0330038, 1.0330038)
            double3 xformOp:translate = (17.03928571559893, 0, 0.911805784110447)
            uniform token[] xformOpOrder = ["xformOp:translate", "xformOp:rotateY", "xformOp:scale"]
        }

        def Xform "Birch_02" (
            prepend references = @./assets/TreeBirch.usda@</TreeBirch>
        )
        {
            float xformOp:rotateY = 110.97301
            float3 xformOp:scale = (1.1595926, 1.1595926, 1.1595926)
            double3 xformOp:translate = (9.480937855674826, 0, -7.451089614357224)
            uniform token[] xformOpOrder = ["xformOp:translate", "xformOp:rotateY", "xformOp:scale"]
        }

        def Xform "Birch_03" (
            prepend references = @./assets/TreeBirch.usda@</TreeBirch>
        )
        {
            float xformOp:rotateY = 323.61285
            float3 xformOp:scale = (0.88403064, 0.88403064, 0.88403064)
            double3 xformOp:translate = (15.961223048880417, 0, 7.214051640018056)
            uniform token[] xformOpOrder = ["xformOp:translate", "xformOp:rotateY", "xformOp:scale"]
        }

        def Xform "Birch_04" (
            prepend references = @./assets/TreeBirch.usda@</TreeBirch>
        )
        {
            float xformOp:rotateY = 280.84186
            float3 xformOp:scale = (1.1536539, 1.1536539, 1.1536539)
            double3 xformOp:translate = (10.495297392229244, 0, -7.944127566564287)
            uniform token[] xformOpOrder = ["xformOp:translate", "xformOp:rotateY", "xformOp:scale"]
        }

        def Xform "Birch_05" (
            prepend references = @./assets/TreeBirch.usda@</TreeBirch>
        )
        {
            float xformOp:rotateY = 55.639202
            float3 xformOp:scale = (1.1719524, 1.1719524, 1.1719524)
            double3 xformOp:translate = (12.063773898321168, 0, 2.4132302030142565)
            uniform token[] xformOpOrder = ["xformOp:translate", "xformOp:rotateY", "xformOp:scale"]
        }

        def Xform "RockBig_00" (
            prepend references = @./assets/RockBig.usda@</RockBig>
        )
        {
            float xformOp:rotateY = 291.8778
            float3 xformOp:scale = (1.305133, 1.305133, 1.305133)
            double3 xformOp:translate = (16.64605696219964, 0, 9.524120658619257)
            uniform token[] xformOpOrder = ["xformOp:translate", "xformOp:rotateY", "xformOp:scale"]
        }

        def Xform "RockBig_01" (
            prepend references = @./assets/RockBig.usda@</RockBig>
        )
        {
            float xformOp:rotateY = 119.58677
            float3 xformOp:scale = (1.3446527, 1.3446527, 1.3446527)
            double3 xformOp:translate = (8.247863618981887, 0, 4.731289435101642)
            uniform token[] xformOpOrder = ["xformOp:translate", "xformOp:rotateY", "xformOp:scale"]
        }

        def Xform "RockBig_02" (
            prepend references = @./assets/RockBig.usda@</RockBig>
        )
        {
            float xformOp:rotateY = 291.86975
            float3 xformOp:scale = (0.81344455, 0.81344455, 0.81344455)
            double3 xformOp:translate = (16.022351389371387, 0, 7.28128056750559)
            uniform token[] xformOpOrder = ["xformOp:translate", "xformOp:rotateY", "xformOp:scale"]
        }

        def Xform "RockBig_03" (
            prepend references = @./assets/RockBig.usda@</RockBig>
        )
        {
            float xformOp:rotateY = 313.98004
            float3 xformOp:scale = (1.2868747, 1.2868747, 1.2868747)
            double3 xformOp:translate = (15.873745091354712, 0, -7.838087471940858)
            uniform token[] xformOpOrder = ["xformOp:translate", "xformOp:rotateY", "xformOp:scale"]
        }

        def Xform "RockBig_04" (
            prepend references = @./assets/RockBig.usda@</RockBig>
        )
        {
            float xformOp:rotateY = 165.70917
            float3 xformOp:scale = (0.8441527, 0.8441527, 0.8441527)
            double3 xformOp:translate = (10.224337175456643, 0, 6.331732111938578)
            uniform token[] xformOpOrder = ["xformOp:translate", "xformOp:rotateY", "xformOp:scale"]
        }

        def Xform "RockSmall_00" (
            prepend references = @./assets/RockSmall.usda@</RockSmall>
        )
        {
            float xformOp:rotateY = 8.5191965
            float3 xformOp:scale = (0.6931298, 0.6931298, 0.6931298)
            double3 xformOp:translate = (15.953454991528618, 0, -5.448090251844593)
            uniform token[] xformOpOrder = ["xformOp:translate", "xformOp:rotateY", "xformOp:scale"]
        }

        def Xform "RockSmall_01" (
            prepend references = @./assets/RockSmall.usda@</RockSmall>
        )
        {
            float xformOp:rotateY = 348.08008
            float3 xformOp:scale = (0.779125, 0.779125, 0.779125)
            double3 xformOp:translate = (11.282619511977066, 0, 7.287058840605727)
            uniform token[] xformOpOrder = ["xformOp:translate", "xformOp:rotateY", "xformOp:scale"]
        }

        def Xform "RockSmall_02" (
            prepend references = @./assets/RockSmall.usda@</RockSmall>
        )
        {
            float xformOp:rotateY = 353.2139
            float3 xformOp:scale = (1.0362158, 1.0362158, 1.0362158)
            double3 xformOp:translate = (14.414817386076276, 0, -2.0064323127987826)
            uniform token[] xformOpOrder = ["xformOp:translate", "xformOp:rotateY", "xformOp:scale"]
        }

        def Xform "RockSmall_03" (
            prepend references = @./assets/RockSmall.usda@</RockSmall>
        )
        {
            float xformOp:rotateY = 349.3442
            float3 xformOp:scale = (0.6785678, 0.6785678, 0.6785678)
            double3 xformOp:translate = (17.392371403247157, 0, -7.693164962971448)
            uniform token[] xformOpOrder = ["xformOp:translate", "xformOp:rotateY", "xformOp:scale"]
        }

        def Xform "RockSmall_04" (
            prepend references = @./assets/RockSmall.usda@</RockSmall>
        )
        {
            float xformOp:rotateY = 39.024918
            float3 xformOp:scale = (0.93456376, 0.93456376, 0.93456376)
            double3 xformOp:translate = (17.625343157615553, 0, -4.690672749540628)
            uniform token[] xformOpOrder = ["xformOp:translate", "xformOp:rotateY", "xformOp:scale"]
        }

        def Xform "RockSmall_05" (
            prepend references = @./assets/RockSmall.usda@</RockSmall>
        )
        {
            float xformOp:rotateY = 218.23518
            float3 xformOp:scale = (1.0114231, 1.0114231, 1.0114231)
            double3 xformOp:translate = (15.285450606527043, 0, -3.726453716100176)
            uniform token[] xformOpOrder = ["xformOp:translate", "xformOp:rotateY", "xformOp:scale"]
        }

        def Xform "RockSmall_06" (
            prepend references = @./assets/RockSmall.usda@</RockSmall>
        )
        {
            float xformOp:rotateY = 91.7001
            float3 xformOp:scale = (1.2087853, 1.2087853, 1.2087853)
            double3 xformOp:translate = (11.85195433344727, 0, 1.5317608699319898)
            uniform token[] xformOpOrder = ["xformOp:translate", "xformOp:rotateY", "xformOp:scale"]
        }

        def Xform "RockSmall_07" (
            prepend references = @./assets/RockSmall.usda@</RockSmall>
        )
        {
            float xformOp:rotateY = 193.84271
            float3 xformOp:scale = (1.21943, 1.21943, 1.21943)
            double3 xformOp:translate = (8.016912782186294, 0, 8.511503309981656)
            uniform token[] xformOpOrder = ["xformOp:translate", "xformOp:rotateY", "xformOp:scale"]
        }

        def Xform "FallenLog_00" (
            prepend references = @./assets/FallenLog.usda@</FallenLog>
        )
        {
            float xformOp:rotateY = 131.11974
            float3 xformOp:scale = (0.7419843, 0.7419843, 0.7419843)
            double3 xformOp:translate = (15.419500778394765, 0, 3.41257008865999)
            uniform token[] xformOpOrder = ["xformOp:translate", "xformOp:rotateY", "xformOp:scale"]
        }

        def Xform "FallenLog_01" (
            prepend references = @./assets/FallenLog.usda@</FallenLog>
        )
        {
            float xformOp:rotateY = 113.009636
            float3 xformOp:scale = (1.2088091, 1.2088091, 1.2088091)
            double3 xformOp:translate = (14.642376849112724, 0, -3.3959992791480715)
            uniform token[] xformOpOrder = ["xformOp:translate", "xformOp:rotateY", "xformOp:scale"]
        }

        def Xform "FallenLog_02" (
            prepend references = @./assets/FallenLog.usda@</FallenLog>
        )
        {
            float xformOp:rotateY = 111.342476
            float3 xformOp:scale = (0.94503576, 0.94503576, 0.94503576)
            double3 xformOp:translate = (15.197542630139502, 0, -3.993554635774716)
            uniform token[] xformOpOrder = ["xformOp:translate", "xformOp:rotateY", "xformOp:scale"]
        }

        def Xform "Moss_00" (
            prepend references = @./assets/Moss.usda@</Moss>
        )
        {
            float xformOp:rotateY = 45.82361
            float3 xformOp:scale = (1.0474945, 1.0474945, 1.0474945)
            double3 xformOp:translate = (12.024003870577246, 0, -4.086895949481059)
            uniform token[] xformOpOrder = ["xformOp:translate", "xformOp:rotateY", "xformOp:scale"]
        }

        def Xform "Moss_01" (
            prepend references = @./assets/Moss.usda@</Moss>
        )
        {
            float xformOp:rotateY = 325.01
            float3 xformOp:scale = (1.1762398, 1.1762398, 1.1762398)
            double3 xformOp:translate = (17.40363670730183, 0, 3.5463589054546585)
            uniform token[] xformOpOrder = ["xformOp:translate", "xformOp:rotateY", "xformOp:scale"]
        }

        def Xform "Moss_02" (
            prepend references = @./assets/Moss.usda@</Moss>
        )
        {
            float xformOp:rotateY = 0.1461383
            float3 xformOp:scale = (0.95936304, 0.95936304, 0.95936304)
            double3 xformOp:translate = (11.009498745655653, 0, 0.9587442627139637)
            uniform token[] xformOpOrder = ["xformOp:translate", "xformOp:rotateY", "xformOp:scale"]
        }

        def Xform "Moss_03" (
            prepend references = @./assets/Moss.usda@</Moss>
        )
        {
            float xformOp:rotateY = 235.69403
            float3 xformOp:scale = (1.0768923, 1.0768923, 1.0768923)
            double3 xformOp:translate = (12.298881499898346, 0, 1.5996956239136395)
            uniform token[] xformOpOrder = ["xformOp:translate", "xformOp:rotateY", "xformOp:scale"]
        }

        def Xform "Moss_04" (
            prepend references = @./assets/Moss.usda@</Moss>
        )
        {
            float xformOp:rotateY = 170.34703
            float3 xformOp:scale = (1.3647794, 1.3647794, 1.3647794)
            double3 xformOp:translate = (12.421597993048074, 0, -5.725971980217994)
            uniform token[] xformOpOrder = ["xformOp:translate", "xformOp:rotateY", "xformOp:scale"]
        }

        def Xform "Fern_00" (
            prepend references = @./assets/Fern.usda@</Fern>
        )
        {
            float xformOp:rotateY = 30.526394
            float3 xformOp:scale = (0.9069534, 0.9069534, 0.9069534)
            double3 xformOp:translate = (15.960247601267803, 0, -6.606172076038906)
            uniform token[] xformOpOrder = ["xformOp:translate", "xformOp:rotateY", "xformOp:scale"]
        }

        def Xform "Fern_01" (
            prepend references = @./assets/Fern.usda@</Fern>
        )
        {
            float xformOp:rotateY = 294.63245
            float3 xformOp:scale = (1.0130122, 1.0130122, 1.0130122)
            double3 xformOp:translate = (14.329408557657956, 0, -3.296234891803982)
            uniform token[] xformOpOrder = ["xformOp:translate", "xformOp:rotateY", "xformOp:scale"]
        }

        def Xform "Fern_02" (
            prepend references = @./assets/Fern.usda@</Fern>
        )
        {
            float xformOp:rotateY = 71.686775
            float3 xformOp:scale = (0.6859914, 0.6859914, 0.6859914)
            double3 xformOp:translate = (14.727956705571671, 0, -5.507186680054234)
            uniform token[] xformOpOrder = ["xformOp:translate", "xformOp:rotateY", "xformOp:scale"]
        }
    }
}

