#usda 1.0
(
    defaultPrim = "BirdNest"
    metersPerUnit = 1
    upAxis = "Y"
)

def Xform "BirdNest"
{
    def Scope "Materials"
    {
        def Material "Mat_Twigs"
        {
            token outputs:surface.connect = </BirdNest/Materials/Mat_Twigs/Surface.outputs:surface>

            def Shader "Surface"
            {
                uniform token info:id = "UsdPreviewSurface"
                color3f inputs:diffuseColor = (0.35, 0.22, 0.1)
                float inputs:metallic = 0
                float inputs:roughness = 0.9
                token outputs:surface
            }
        }

        def Material "Mat_Egg"
        {
            token outputs:surface.connect = </BirdNest/Materials/Mat_Egg/Surface.outputs:surface>

            def Shader "Surface"
            {
                uniform token info:id = "UsdPreviewSurface"
                color3f inputs:diffuseColor = (0.95, 0.93, 0.85)
                float inputs:metallic = 0
                float inputs:roughness = 0.4
                token outputs:surface
            }
        }
    }

    def Mesh "Ring"
    {
        int[] faceVertexCounts = [3, 3, 3, 3, 3, 3, 3, 3, 3, 3, 3, 3, 3, 3, 4, 4, 4, 4, 4, 4, 4, 4, 4, 4, 4, 4, 4, 4, 4, 4, 4, 4, 4, 4, 4, 4, 4, 4, 4, 4, 4, 4, 4, 4, 4, 4, 4, 4, 4, 4, 4, 4, 4, 4, 4, 4, 4, 4, 4, 4, 4, 4, 4, 4, 4, 4, 4, 4, 4, 4, 4, 4, 4, 4, 4, 4, 4, 4, 4, 4, 4, 4, 4, 4, 4, 4, 4, 4, 4, 4, 4, 4, 4, 4, 4, 4, 4, 4, 3, 3, 3, 3, 3, 3, 3, 3, 3, 3, 3, 3, 3, 3]
        int[] faceVertexIndices = [0, 1, 2, 0, 2, 3, 0, 3, 4, 0, 4, 5, 0, 5, 6, 0, 6, 7, 0, 7, 8, 0, 8, 9, 0, 9, 10, 0, 10, 11, 0, 11, 12, 0, 12, 13, 0, 13, 14, 0, 14, 1, 1, 2, 16, 15, 2, 3, 17, 16, 3, 4, 18, 17, 4, 5, 19, 18, 5, 6, 20, 19, 6, 7, 21, 20, 7, 8, 22, 21, 8, 9, 23, 22, 9, 10, 24, 23, 10, 11, 25, 24, 11, 12, 26, 25, 12, 13, 27, 26, 13, 14, 28, 27, 14, 1, 15, 28, 15, 16, 30, 29, 16, 17, 31, 30, 17, 18, 32, 31, 18, 19, 33, 32, 19, 20, 34, 33, 20, 21, 35, 34, 21, 22, 36, 35, 22, 23, 37, 36, 23, 24, 38, 37, 24, 25, 39, 38, 25, 26, 40, 39, 26, 27, 41, 40, 27, 28, 42, 41, 28, 15, 29, 42, 29, 30, 44, 43, 30, 31, 45, 44, 31, 32, 46, 45, 32, 33, 47, 46, 33, 34, 48, 47, 34, 35, 49, 48, 35, 36, 50, 49, 36, 37, 51, 50, 37, 38, 52, 51, 38, 39, 53, 52, 39, 40, 54, 53, 40, 41, 55, 54, 41, 42, 56, 55, 42, 29, 43, 56, 43, 44, 58, 57, 44, 45, 59, 58, 45, 46, 60, 59, 46, 47, 61, 60, 47, 48, 62, 61, 48, 49, 63, 62, 49, 50, 64, 63, 50, 51, 65, 64, 51, 52, 66, 65, 52, 53, 67, 66, 53, 54, 68, 67, 54, 55, 69, 68, 55, 56, 70, 69, 56, 43, 57, 70, 57, 58, 72, 71, 58, 59, 73, 72, 59, 60, 74, 73, 60, 61, 75, 74, 61, 62, 76, 75, 62, 63, 77, 76, 63, 64, 78, 77, 64, 65, 79, 78, 65, 66, 80, 79, 66, 67, 81, 80, 67, 68, 82, 81, 68, 69, 83, 82, 69, 70, 84, 83, 70, 57, 71, 84, 71, 72, 86, 85, 72, 73, 87, 86, 73, 74, 88, 87, 74, 75, 89, 88, 75, 76, 90, 89, 76, 77, 91, 90, 77, 78, 92, 91, 78, 79, 93, 92, 79, 80, 94, 93, 80, 81, 95, 94, 81, 82, 96, 95, 82, 83, 97, 96, 83, 84, 98, 97, 84, 71, 85, 98, 99, 86, 85, 99, 87, 86, 99, 88, 87, 99, 89, 88, 99, 90, 89, 99, 91, 90, 99, 92, 91, 99, 93, 92, 99, 94, 93, 99, 95, 94, 99, 96, 95, 99, 97, 96, 99, 98, 97, 99, 85, 98]
        rel material:binding = </BirdNest/Materials/Mat_Twigs>
        point3f[] points = [(0, 0.3, 0), (0.11480503, 0.27716386, 0), (0.103435755, 0.27716386, 0.049812034), (0.07157976, 0.27716386, 0.08975819), (0.025546523, 0.27716386, 0.11192663), (-0.025546523, 0.27716386, 0.11192663), (-0.07157976, 0.27716386, 0.08975819), (-0.103435755, 0.27716386, 0.049812034), (-0.11480503, 0.27716386, 1.405956e-17), (-0.103435755, 0.27716386, -0.049812034), (-0.07157976, 0.27716386, -0.08975819), (-0.025546523, 0.27716386, -0.11192663), (0.025546523, 0.27716386, -0.11192663), (0.07157976, 0.27716386, -0.08975819), (0.103435755, 0.27716386, -0.049812034), (0.21213204, 0.21213204, 0), (0.19112436, 0.21213204, 0.09204064), (0.13226216, 0.21213204, 0.1658515), (0.04720382, 0.21213204, 0.20681344), (-0.04720382, 0.21213204, 0.20681344), (-0.13226216, 0.21213204, 0.1658515), (-0.19112436, 0.21213204, 0.09204064), (-0.21213204, 0.21213204, 2.5978682e-17), (-0.19112436, 0.21213204, -0.09204064), (-0.13226216, 0.21213204, -0.1658515), (-0.04720382, 0.21213204, -0.20681344), (0.04720382, 0.21213204, -0.20681344), (0.13226216, 0.21213204, -0.1658515), (0.19112436, 0.21213204, -0.09204064), (0.27716386, 0.11480503, 0), (0.24971601, 0.11480503, 0.12025689), (0.17280884, 0.11480503, 0.21669543), (0.061674763, 0.11480503, 0.2702148), (-0.061674763, 0.11480503, 0.2702148), (-0.17280884, 0.11480503, 0.21669543), (-0.24971601, 0.11480503, 0.12025689), (-0.27716386, 0.11480503, 3.3942784e-17), (-0.24971601, 0.11480503, -0.12025689), (-0.17280884, 0.11480503, -0.21669543), (-0.061674763, 0.11480503, -0.2702148), (0.061674763, 0.11480503, -0.2702148), (0.17280884, 0.11480503, -0.21669543), (0.24971601, 0.11480503, -0.12025689), (0.3, 1.8369703e-17, 0), (0.27029067, 1.8369703e-17, 0.13016511), (0.18704695, 1.8369703e-17, 0.23454945), (0.06675628, 1.8369703e-17, 0.29247838), (-0.06675628, 1.8369703e-17, 0.29247838), (-0.18704695, 1.8369703e-17, 0.23454945), (-0.27029067, 1.8369703e-17, 0.13016511), (-0.3, 1.8369703e-17, 3.6739406e-17), (-0.27029067, 1.8369703e-17, -0.13016511), (-0.18704695, 1.8369703e-17, -0.23454945), (-0.06675628, 1.8369703e-17, -0.29247838), (0.06675628, 1.8369703e-17, -0.29247838), (0.18704695, 1.8369703e-17, -0.23454945), (0.27029067, 1.8369703e-17, -0.13016511), (0.27716386, -0.11480503, 0), (0.24971601, -0.11480503, 0.12025689), (0.17280884, -0.11480503, 0.21669543), (0.061674763, -0.11480503, 0.2702148), (-0.061674763, -0.11480503, 0.2702148), (-0.17280884, -0.11480503, 0.21669543), (-0.24971601, -0.11480503, 0.12025689), (-0.27716386, -0.11480503, 3.3942784e-17), (-0.24971601, -0.11480503, -0.12025689), (-0.17280884, -0.11480503, -0.21669543), (-0.061674763, -0.11480503, -0.2702148), (0.061674763, -0.11480503, -0.2702148), (0.17280884, -0.11480503, -0.21669543), (0.24971601, -0.11480503, -0.12025689), (0.21213204, -0.21213204, 0), (0.19112436, -0.21213204, 0.09204064), (0.13226216, -0.21213204, 0.1658515), (0.04720382, -0.21213204, 0.20681344), (-0.04720382, -0.21213204, 0.20681344), (-0.13226216, -0.21213204, 0.1658515), (-0.19112436, -0.21213204, 0.09204064), (-0.21213204, -0.21213204, 2.5978682e-17), (-0.19112436, -0.21213204, -0.09204064), (-0.13226216, -0.21213204, -0.1658515), (-0.04720382, -0.21213204, -0.20681344), (0.04720382, -0.21213204, -0.20681344), (0.13226216, -0.21213204, -0.1658515), (0.19112436, -0.21213204, -0.09204064), (0.11480503, -0.27716386, 0), (0.103435755, -0.27716386, 0.049812034), (0.07157976, -0.27716386, 0.08975819), (0.025546523, -0.27716386, 0.11192663), (-0.025546523, -0.27716386, 0.11192663), (-0.07157976, -0.27716386, 0.08975819), (-0.103435755, -0.27716386, 0.049812034), (-0.11480503, -0.27716386, 1.405956e-17), (-0.103435755, -0.27716386, -0.049812034), (-0.07157976, -0.27716386, -0.08975819), (-0.025546523, -0.27716386, -0.11192663), (0.025546523, -0.27716386, -0.11192663), (0.07157976, -0.27716386, -0.08975819), (0.103435755, -0.27716386, -0.049812034), (0, -0.3, 0)]
        uniform token subdivisionScheme = "none"
        float3 xformOp:scale = (1, 0.35, 1)
        uniform token[] xformOpOrder = ["xformOp:scale"]
    }

    def Mesh "Egg_0"
    {
        int[] faceVertexCounts = [3, 3, 3, 3, 3, 3, 3, 3, 4, 4, 4, 4, 4, 4, 4, 4, 4, 4, 4, 4, 4, 4, 4, 4, 4, 4, 4, 4, 4, 4, 4, 4, 4, 4, 4, 4, 4, 4, 4, 4, 3, 3, 3, 3, 3, 3, 3, 3]
        int[] faceVertexIndices = [0, 1, 2, 0, 2, 3, 0, 3, 4, 0, 4, 5, 0, 5, 6, 0, 6, 7, 0, 7, 8, 0, 8, 1, 1, 2, 10, 9, 2, 3, 11, 10, 3, 4, 12, 11, 4, 5, 13, 12, 5, 6, 14, 13, 6, 7, 15, 14, 7, 8, 16, 15, 8, 1, 9, 16, 9, 10, 18, 17, 10, 11, 19, 18, 11, 12, 20, 19, 12, 13, 21, 20, 13, 14, 22, 21, 14, 15, 23, 22, 15, 16, 24, 23, 16, 9, 17, 24, 17, 18, 26, 25, 18, 19, 27, 26, 19, 20, 28, 27, 20, 21, 29, 28, 21, 22, 30, 29, 22, 23, 31, 30, 23, 24, 32, 31, 24, 17, 25, 32, 25, 26, 34, 33, 26, 27, 35, 34, 27, 28, 36, 35, 28, 29, 37, 36, 29, 30, 38, 37, 30, 31, 39, 38, 31, 32, 40, 39, 32, 25, 33, 40, 41, 34, 33, 41, 35, 34, 41, 36, 35, 41, 37, 36, 41, 38, 37, 41, 39, 38, 41, 40, 39, 41, 33, 40]
        rel material:binding = </BirdNest/Materials/Mat_Egg>
        point3f[] points = [(0, 0.06, 0), (0.03, 0.051961523, 0), (0.021213204, 0.051961523, 0.021213204), (1.8369702e-18, 0.051961523, 0.03), (-0.021213204, 0.051961523, 0.021213204), (-0.03, 0.051961523, 3.6739405e-18), (-0.021213204, 0.051961523, -0.021213204), (-5.5109105e-18, 0.051961523, -0.03), (0.021213204, 0.051961523, -0.021213204), (0.051961523, 0.03, 0), (0.036742344, 0.03, 0.036742344), (3.1817256e-18, 0.03, 0.051961523), (-0.036742344, 0.03, 0.036742344), (-0.051961523, 0.03, 6.3634512e-18), (-0.036742344, 0.03, -0.036742344), (-9.545177e-18, 0.03, -0.051961523), (0.036742344, 0.03, -0.036742344), (0.06, 3.6739405e-18, 0), (0.042426407, 3.6739405e-18, 0.042426407), (3.6739405e-18, 3.6739405e-18, 0.06), (-0.042426407, 3.6739405e-18, 0.042426407), (-0.06, 3.6739405e-18, 7.347881e-18), (-0.042426407, 3.6739405e-18, -0.042426407), (-1.1021821e-17, 3.6739405e-18, -0.06), (0.042426407, 3.6739405e-18, -0.042426407), (0.051961523, -0.03, 0), (0.036742344, -0.03, 0.036742344), (3.1817256e-18, -0.03, 0.051961523), (-0.036742344, -0.03, 0.036742344), (-0.051961523, -0.03, 6.3634512e-18), (-0.036742344, -0.03, -0.036742344), (-9.545177e-18, -0.03, -0.051961523), (0.036742344, -0.03, -0.036742344), (0.03, -0.051961523, 0), (0.021213204, -0.051961523, 0.021213204), (1.8369702e-18, -0.051961523, 0.03), (-0.021213204, -0.051961523, 0.021213204), (-0.03, -0.051961523, 3.6739405e-18), (-0.021213204, -0.051961523, -0.021213204), (-5.5109105e-18, -0.051961523, -0.03), (0.021213204, -0.051961523, -0.021213204), (0, -0.06, 0)]
        uniform token subdivisionScheme = "none"
        double3 xformOp:translate = (-0.08, 0.1, 0.04)
        uniform token[] xformOpOrder = ["xformOp:translate"]
    }

    def Mesh "Egg_1"
    {
        int[] faceVertexCounts = [3, 3, 3, 3, 3, 3, 3, 3, 4, 4, 4, 4, 4, 4, 4, 4, 4, 4, 4, 4, 4, 4, 4, 4, 4, 4, 4, 4, 4, 4, 4, 4, 4, 4, 4, 4, 4, 4, 4, 4, 3, 3, 3, 3, 3, 3, 3, 3]
        int[] faceVertexIndices = [0, 1, 2, 0, 2, 3, 0, 3, 4, 0, 4, 5, 0, 5, 6, 0, 6, 7, 0, 7, 8, 0, 8, 1, 1, 2, 10, 9, 2, 3, 11, 10, 3, 4, 12, 11, 4, 5, 13, 12, 5, 6, 14, 13, 6, 7, 15, 14, 7, 8, 16, 15, 8, 1, 9, 16, 9, 10, 18, 17, 10, 11, 19, 18, 11, 12, 20, 19, 12, 13, 21, 20, 13, 14, 22, 21, 14, 15, 23, 22, 15, 16, 24, 23, 16, 9, 17, 24, 17, 18, 26, 25, 18, 19, 27, 26, 19, 20, 28, 27, 20, 21, 29, 28, 21, 22, 30, 29, 22, 23, 31, 30, 23, 24, 32, 31, 24, 17, 25, 32, 25, 26, 34, 33, 26, 27, 35, 34, 27, 28, 36, 35, 28, 29, 37, 36, 29, 30, 38, 37, 30, 31, 39, 38, 31, 32, 40, 39, 32, 25, 33, 40, 41, 34, 33, 41, 35, 34, 41, 36, 35, 41, 37, 36, 41, 38, 37, 41, 39, 38, 41, 40, 39, 41, 33, 40]
        rel material:binding = </BirdNest/Materials/Mat_Egg>
        point3f[] points = [(0, 0.06, 0), (0.03, 0.051961523, 0), (0.021213204, 0.051961523, 0.021213204), (1.8369702e-18, 0.051961523, 0.03), (-0.021213204, 0.051961523, 0.021213204), (-0.03, 0.051961523, 3.6739405e-18), (-0.021213204, 0.051961523, -0.021213204), (-5.5109105e-18, 0.051961523, -0.03), (0.021213204, 0.051961523, -0.021213204), (0.051961523, 0.03, 0), (0.036742344, 0.03, 0.036742344), (3.1817256e-18, 0.03, 0.051961523), (-0.036742344, 0.03, 0.036742344), (-0.051961523, 0.03, 6.3634512e-18), (-0.036742344, 0.03, -0.036742344), (-9.545177e-18, 0.03, -0.051961523), (0.036742344, 0.03, -0.036742344), (0.06, 3.6739405e-18, 0), (0.042426407, 3.6739405e-18, 0.042426407), (3.6739405e-18, 3.6739405e-18, 0.06), (-0.042426407, 3.6739405e-18, 0.042426407), (-0.06, 3.6739405e-18, 7.347881e-18), (-0.042426407, 3.6739405e-18, -0.042426407), (-1.1021821e-17, 3.6739405e-18, -0.06), (0.042426407, 3.6739405e-18, -0.042426407), (0.051961523, -0.03, 0), (0.036742344, -0.03, 0.036742344), (3.1817256e-18, -0.03, 0.051961523), (-0.036742344, -0.03, 0.036742344), (-0.051961523, -0.03, 6.3634512e-18), (-0.036742344, -0.03, -0.036742344), (-9.545177e-18, -0.03, -0.051961523), (0.036742344, -0.03, -0.036742344), (0.03, -0.051961523, 0), (0.021213204, -0.051961523, 0.021213204), (1.8369702e-18, -0.051961523, 0.03), (-0.021213204, -0.051961523, 0.021213204), (-0.03, -0.051961523, 3.6739405e-18), (-0.021213204, -0.051961523, -0.021213204), (-5.5109105e-18, -0.051961523, -0.03), (0.021213204, -0.051961523, -0.021213204), (0, -0.06, 0)]
        uniform token subdivisionScheme = "none"
        double3 xformOp:translate = (0.07, 0.1, -0.05)
        uniform token[] xformOpOrder = ["xformOp:translate"]
    }

    def Mesh "Egg_2"
    {
        int[] faceVertexCounts = [3, 3, 3, 3, 3, 3, 3, 3, 4, 4, 4, 4, 4, 4, 4, 4, 4, 4, 4, 4, 4, 4, 4, 4, 4, 4, 4, 4, 4, 4, 4, 4, 4, 4, 4, 4, 4, 4, 4, 4, 3, 3, 3, 3, 3, 3, 3, 3]
        int[] faceVertexIndices = [0, 1, 2, 0, 2, 3, 0, 3, 4, 0, 4, 5, 0, 5, 6, 0, 6, 7, 0, 7, 8, 0, 8, 1, 1, 2, 10, 9, 2, 3, 11, 10, 3, 4, 12, 11, 4, 5, 13, 12, 5, 6, 14, 13, 6, 7, 15, 14, 7, 8, 16, 15, 8, 1, 9, 16, 9, 10, 18, 17, 10, 11, 19, 18, 11, 12, 20, 19, 12, 13, 21, 20, 13, 14, 22, 21, 14, 15, 23, 22, 15, 16, 24, 23, 16, 9, 17, 24, 17, 18, 26, 25, 18, 19, 27, 26, 19, 20, 28, 27, 20, 21, 29, 28, 21, 22, 30, 29, 22, 23, 31, 30, 23, 24, 32, 31, 24, 17, 25, 32, 25, 26, 34, 33, 26, 27, 35, 34, 27, 28, 36, 35, 28, 29, 37, 36, 29, 30, 38, 37, 30, 31, 39, 38, 31, 32, 40, 39, 32, 25, 33, 40, 41, 34, 33, 41, 35, 34, 41, 36, 35, 41, 37, 36, 41, 38, 37, 41, 39, 38, 41, 40, 39, 41, 33, 40]
        rel material:binding = </BirdNest/Materials/Mat_Egg>
        point3f[] points = [(0, 0.06, 0), (0.03, 0.051961523, 0), (0.021213204, 0.051961523, 0.021213204), (1.8369702e-18, 0.051961523, 0.03), (-0.021213204, 0.051961523, 0.021213204), (-0.03, 0.051961523, 3.6739405e-18), (-0.021213204, 0.051961523, -0.021213204), (-5.5109105e-18, 0.051961523, -0.03), (0.021213204, 0.051961523, -0.021213204), (0.051961523, 0.03, 0), (0.036742344, 0.03, 0.036742344), (3.1817256e-18, 0.03, 0.051961523), (-0.036742344, 0.03, 0.036742344), (-0.051961523, 0.03, 6.3634512e-18), (-0.036742344, 0.03, -0.036742344), (-9.545177e-18, 0.03, -0.051961523), (0.036742344, 0.03, -0.036742344), (0.06, 3.6739405e-18, 0), (0.042426407, 3.6739405e-18, 0.042426407), (3.6739405e-18, 3.6739405e-18, 0.06), (-0.042426407, 3.6739405e-18, 0.042426407), (-0.06, 3.6739405e-18, 7.347881e-18), (-0.042426407, 3.6739405e-18, -0.042426407), (-1.1021821e-17, 3.6739405e-18, -0.06), (0.042426407, 3.6739405e-18, -0.042426407), (0.051961523, -0.03, 0), (0.036742344, -0.03, 0.036742344), (3.1817256e-18, -0.03, 0.051961523), (-0.036742344, -0.03, 0.036742344), (-0.051961523, -0.03, 6.3634512e-18), (-0.036742344, -0.03, -0.036742344), (-9.545177e-18, -0.03, -0.051961523), (0.036742344, -0.03, -0.036742344), (0.03, -0.051961523, 0), (0.021213204, -0.051961523, 0.021213204), (1.8369702e-18, -0.051961523, 0.03), (-0.021213204, -0.051961523, 0.021213204), (-0.03, -0.051961523, 3.6739405e-18), (-0.021213204, -0.051961523, -0.021213204), (-5.5109105e-18, -0.051961523, -0.03), (0.021213204, -0.051961523, -0.021213204), (0, -0.06, 0)]
        uniform token subdivisionScheme = "none"
        double3 xformOp:translate = (0, 0.1, 0.1)
        uniform token[] xformOpOrder = ["xformOp:translate"]
    }
}

