#usda 1.0
(
    defaultPrim = "DeadTree"
    metersPerUnit = 1
    upAxis = "Y"
)

def Xform "DeadTree"
{
    def Scope "Materials"
    {
        def Material "Mat_DeadWood"
        {
            token outputs:surface.connect = </DeadTree/Materials/Mat_DeadWood/Surface.outputs:surface>

            def Shader "Surface"
            {
                uniform token info:id = "UsdPreviewSurface"
                color3f inputs:diffuseColor = (0.42, 0.36, 0.28)
                float inputs:metallic = 0
                float inputs:roughness = 0.95
                token outputs:surface
            }
        }
    }

    def Mesh "Trunk"
    {
        int[] faceVertexCounts = [4, 3, 3, 4, 3, 3, 4, 3, 3, 4, 3, 3, 4, 3, 3, 4, 3, 3, 4, 3, 3, 4, 3, 3, 4, 3, 3, 4, 3, 3, 4, 3, 3, 4, 3, 3]
        int[] faceVertexIndices = [0, 2, 3, 1, 24, 2, 0, 25, 1, 3, 2, 4, 5, 3, 24, 4, 2, 25, 3, 5, 4, 6, 7, 5, 24, 6, 4, 25, 5, 7, 6, 8, 9, 7, 24, 8, 6, 25, 7, 9, 8, 10, 11, 9, 24, 10, 8, 25, 9, 11, 10, 12, 13, 11, 24, 12, 10, 25, 11, 13, 12, 14, 15, 13, 24, 14, 12, 25, 13, 15, 14, 16, 17, 15, 24, 16, 14, 25, 15, 17, 16, 18, 19, 17, 24, 18, 16, 25, 17, 19, 18, 20, 21, 19, 24, 20, 18, 25, 19, 21, 20, 22, 23, 21, 24, 22, 20, 25, 21, 23, 22, 0, 1, 23, 24, 0, 22, 25, 23, 1]
        rel material:binding = </DeadTree/Materials/Mat_DeadWood>
        point3f[] points = [(0.2, 0, 0), (0.2, 2.6, 0), (0.17320508, 0, 0.1), (0.17320508, 2.6, 0.1), (0.1, 0, 0.17320508), (0.1, 2.6, 0.17320508), (1.2246468e-17, 0, 0.2), (1.2246468e-17, 2.6, 0.2), (-0.1, 0, 0.17320508), (-0.1, 2.6, 0.17320508), (-0.17320508, 0, 0.1), (-0.17320508, 2.6, 0.1), (-0.2, 0, 2.4492935e-17), (-0.2, 2.6, 2.4492935e-17), (-0.17320508, 0, -0.1), (-0.17320508, 2.6, -0.1), (-0.1, 0, -0.17320508), (-0.1, 2.6, -0.17320508), (-3.6739406e-17, 0, -0.2), (-3.6739406e-17, 2.6, -0.2), (0.1, 0, -0.17320508), (0.1, 2.6, -0.17320508), (0.17320508, 0, -0.1), (0.17320508, 2.6, -0.1), (0, 0, 0), (0, 2.6, 0)]
        uniform token subdivisionScheme = "none"
    }

    def Mesh "Branch_0"
    {
        int[] faceVertexCounts = [4, 3, 3, 4, 3, 3, 4, 3, 3, 4, 3, 3, 4, 3, 3, 4, 3, 3, 4, 3, 3, 4, 3, 3]
        int[] faceVertexIndices = [0, 2, 3, 1, 16, 2, 0, 17, 1, 3, 2, 4, 5, 3, 16, 4, 2, 17, 3, 5, 4, 6, 7, 5, 16, 6, 4, 17, 5, 7, 6, 8, 9, 7, 16, 8, 6, 17, 7, 9, 8, 10, 11, 9, 16, 10, 8, 17, 9, 11, 10, 12, 13, 11, 16, 12, 10, 17, 11, 13, 12, 14, 15, 13, 16, 14, 12, 17, 13, 15, 14, 0, 1, 15, 16, 0, 14, 17, 15, 1]
        rel material:binding = </DeadTree/Materials/Mat_DeadWood>
        point3f[] points = [(0.05, 0, 0), (0.05, 0.9, 0), (0.03535534, 0, 0.03535534), (0.03535534, 0.9, 0.03535534), (3.061617e-18, 0, 0.05), (3.061617e-18, 0.9, 0.05), (-0.03535534, 0, 0.03535534), (-0.03535534, 0.9, 0.03535534), (-0.05, 0, 6.123234e-18), (-0.05, 0.9, 6.123234e-18), (-0.03535534, 0, -0.03535534), (-0.03535534, 0.9, -0.03535534), (-9.184851e-18, 0, -0.05), (-9.184851e-18, 0.9, -0.05), (0.03535534, 0, -0.03535534), (0.03535534, 0.9, -0.03535534), (0, 0, 0), (0, 0.9, 0)]
        uniform token subdivisionScheme = "none"
        float xformOp:rotateZ = 35
        double3 xformOp:translate = (0.6, 1.6, 0)
        uniform token[] xformOpOrder = ["xformOp:translate", "xformOp:rotateZ"]
    }

    def Mesh "Branch_1"
    {
        int[] faceVertexCounts = [4, 3, 3, 4, 3, 3, 4, 3, 3, 4, 3, 3, 4, 3, 3, 4, 3, 3, 4, 3, 3, 4, 3, 3]
        int[] faceVertexIndices = [0, 2, 3, 1, 16, 2, 0, 17, 1, 3, 2, 4, 5, 3, 16, 4, 2, 17, 3, 5, 4, 6, 7, 5, 16, 6, 4, 17, 5, 7, 6, 8, 9, 7, 16, 8, 6, 17, 7, 9, 8, 10, 11, 9, 16, 10, 8, 17, 9, 11, 10, 12, 13, 11, 16, 12, 10, 17, 11, 13, 12, 14, 15, 13, 16, 14, 12, 17, 13, 15, 14, 0, 1, 15, 16, 0, 14, 17, 15, 1]
        rel material:binding = </DeadTree/Materials/Mat_DeadWood>
        point3f[] points = [(0.05, 0, 0), (0.05, 0.9, 0), (0.03535534, 0, 0.03535534), (0.03535534, 0.9, 0.03535534), (3.061617e-18, 0, 0.05), (3.061617e-18, 0.9, 0.05), (-0.03535534, 0, 0.03535534), (-0.03535534, 0.9, 0.03535534), (-0.05, 0, 6.123234e-18), (-0.05, 0.9, 6.123234e-18), (-0.03535534, 0, -0.03535534), (-0.03535534, 0.9, -0.03535534), (-9.184851e-18, 0, -0.05), (-9.184851e-18, 0.9, -0.05), (0.03535534, 0, -0.03535534), (0.03535534, 0.9, -0.03535534), (0, 0, 0), (0, 0.9, 0)]
        uniform token subdivisionScheme = "none"
        float xformOp:rotateZ = -30
        double3 xformOp:translate = (-0.5, 1.9, 0)
        uniform token[] xformOpOrder = ["xformOp:translate", "xformOp:rotateZ"]
    }

    def Mesh "Branch_2"
    {
        int[] faceVertexCounts = [4, 3, 3, 4, 3, 3, 4, 3, 3, 4, 3, 3, 4, 3, 3, 4, 3, 3, 4, 3, 3, 4, 3, 3]
        int[] faceVertexIndices = [0, 2, 3, 1, 16, 2, 0, 17, 1, 3, 2, 4, 5, 3, 16, 4, 2, 17, 3, 5, 4, 6, 7, 5, 16, 6, 4, 17, 5, 7, 6, 8, 9, 7, 16, 8, 6, 17, 7, 9, 8, 10, 11, 9, 16, 10, 8, 17, 9, 11, 10, 12, 13, 11, 16, 12, 10, 17, 11, 13, 12, 14, 15, 13, 16, 14, 12, 17, 13, 15, 14, 0, 1, 15, 16, 0, 14, 17, 15, 1]
        rel material:binding = </DeadTree/Materials/Mat_DeadWood>
        point3f[] points = [(0.05, 0, 0), (0.05, 0.9, 0), (0.03535534, 0, 0.03535534), (0.03535534, 0.9, 0.03535534), (3.061617e-18, 0, 0.05), (3.061617e-18, 0.9, 0.05), (-0.03535534, 0, 0.03535534), (-0.03535534, 0.9, 0.03535534), (-0.05, 0, 6.123234e-18), (-0.05, 0.9, 6.123234e-18), (-0.03535534, 0, -0.03535534), (-0.03535534, 0.9, -0.03535534), (-9.184851e-18, 0, -0.05), (-9.184851e-18, 0.9, -0.05), (0.03535534, 0, -0.03535534), (0.03535534, 0.9, -0.03535534), (0, 0, 0), (0, 0.9, 0)]
        uniform token subdivisionScheme = "none"
        float xformOp:rotateZ = 50
        double3 xformOp:translate = (0.4, 2.2, 0)
        uniform token[] xformOpOrder = ["xformOp:translate", "xformOp:rotateZ"]
    }
}

