#usda 1.0
(
    defaultPrim = "Flower"
    metersPerUnit = 1
    upAxis = "Y"
)

def Xform "Flower"
{
    def Scope "Materials"
    {
        def Material "Mat_Stem"
        {
            token outputs:surface.connect = </Flower/Materials/Mat_Stem/Surface.outputs:surface>

            def Shader "Surface"
            {
                uniform token info:id = "UsdPreviewSurface"
                color3f inputs:diffuseColor = (0.25, 0.45, 0.2)
                float inputs:metallic = 0
                float inputs:roughness = 0.85
                token outputs:surface
            }
        }

        def Material "Mat_Petal"
        {
            token outputs:surface.connect = </Flower/Materials/Mat_Petal/Surface.outputs:surface>

            def Shader "Surface"
            {
                uniform token info:id = "UsdPreviewSurface"
                color3f inputs:diffuseColor = (0.92, 0.28, 0.35)
                float inputs:metallic = 0
                float inputs:roughness = 0.55
                token outputs:surface
            }
        }

        def Material "Mat_Center"
        {
            token outputs:surface.connect = </Flower/Materials/Mat_Center/Surface.outputs:surface>

            def Shader "Surface"
            {
                uniform token info:id = "UsdPreviewSurface"
                color3f inputs:diffuseColor = (1, 0.85, 0.2)
                float inputs:metallic = 0
                float inputs:roughness = 0.6
                token outputs:surface
            }
        }
    }

    def Mesh "Stem"
    {
        int[] faceVertexCounts = [4, 3, 3, 4, 3, 3, 4, 3, 3, 4, 3, 3, 4, 3, 3, 4, 3, 3, 4, 3, 3, 4, 3, 3]
        int[] faceVertexIndices = [0, 2, 3, 1, 16, 2, 0, 17, 1, 3, 2, 4, 5, 3, 16, 4, 2, 17, 3, 5, 4, 6, 7, 5, 16, 6, 4, 17, 5, 7, 6, 8, 9, 7, 16, 8, 6, 17, 7, 9, 8, 10, 11, 9, 16, 10, 8, 17, 9, 11, 10, 12, 13, 11, 16, 12, 10, 17, 11, 13, 12, 14, 15, 13, 16, 14, 12, 17, 13, 15, 14, 0, 1, 15, 16, 0, 14, 17, 15, 1]
        rel material:binding = </Flower/Materials/Mat_Stem>
        point3f[] points = [(0.03, 0, 0), (0.03, 0.35, 0), (0.021213204, 0, 0.021213204), (0.021213204, 0.35, 0.021213204), (1.8369702e-18, 0, 0.03), (1.8369702e-18, 0.35, 0.03), (-0.021213204, 0, 0.021213204), (-0.021213204, 0.35, 0.021213204), (-0.03, 0, 3.6739405e-18), (-0.03, 0.35, 3.6739405e-18), (-0.021213204, 0, -0.021213204), (-0.021213204, 0.35, -0.021213204), (-5.5109105e-18, 0, -0.03), (-5.5109105e-18, 0.35, -0.03), (0.021213204, 0, -0.021213204), (0.021213204, 0.35, -0.021213204), (0, 0, 0), (0, 0.35, 0)]
        uniform token subdivisionScheme = "none"
    }

    def Mesh "Petals"
    {
        int[] faceVertexCounts = [3, 3, 3, 3, 3, 3, 3, 3, 3, 3, 4, 4, 4, 4, 4, 4, 4, 4, 4, 4, 4, 4, 4, 4, 4, 4, 4, 4, 4, 4, 4, 4, 4, 4, 4, 4, 4, 4, 4, 4, 4, 4, 4, 4, 4, 4, 4, 4, 4, 4, 3, 3, 3, 3, 3, 3, 3, 3, 3, 3]
        int[] faceVertexIndices = [0, 1, 2, 0, 2, 3, 0, 3, 4, 0, 4, 5, 0, 5, 6, 0, 6, 7, 0, 7, 8, 0, 8, 9, 0, 9, 10, 0, 10, 1, 1, 2, 12, 11, 2, 3, 13, 12, 3, 4, 14, 13, 4, 5, 15, 14, 5, 6, 16, 15, 6, 7, 17, 16, 7, 8, 18, 17, 8, 9, 19, 18, 9, 10, 20, 19, 10, 1, 11, 20, 11, 12, 22, 21, 12, 13, 23, 22, 13, 14, 24, 23, 14, 15, 25, 24, 15, 16, 26, 25, 16, 17, 27, 26, 17, 18, 28, 27, 18, 19, 29, 28, 19, 20, 30, 29, 20, 11, 21, 30, 21, 22, 32, 31, 22, 23, 33, 32, 23, 24, 34, 33, 24, 25, 35, 34, 25, 26, 36, 35, 26, 27, 37, 36, 27, 28, 38, 37, 28, 29, 39, 38, 29, 30, 40, 39, 30, 21, 31, 40, 31, 32, 42, 41, 32, 33, 43, 42, 33, 34, 44, 43, 34, 35, 45, 44, 35, 36, 46, 45, 36, 37, 47, 46, 37, 38, 48, 47, 38, 39, 49, 48, 39, 40, 50, 49, 40, 31, 41, 50, 51, 42, 41, 51, 43, 42, 51, 44, 43, 51, 45, 44, 51, 46, 45, 51, 47, 46, 51, 48, 47, 51, 49, 48, 51, 50, 49, 51, 41, 50]
        rel material:binding = </Flower/Materials/Mat_Petal>
        point3f[] points = [(0, 0.1, 0), (0.05, 0.08660254, 0), (0.04045085, 0.08660254, 0.029389262), (0.01545085, 0.08660254, 0.047552824), (-0.01545085, 0.08660254, 0.047552824), (-0.04045085, 0.08660254, 0.029389262), (-0.05, 0.08660254, 6.123234e-18), (-0.04045085, 0.08660254, -0.029389262), (-0.01545085, 0.08660254, -0.047552824), (0.01545085, 0.08660254, -0.047552824), (0.04045085, 0.08660254, -0.029389262), (0.08660254, 0.05, 0), (0.07006293, 0.05, 0.050903697), (0.026761657, 0.05, 0.08236391), (-0.026761657, 0.05, 0.08236391), (-0.07006293, 0.05, 0.050903697), (-0.08660254, 0.05, 1.06057525e-17), (-0.07006293, 0.05, -0.050903697), (-0.026761657, 0.05, -0.08236391), (0.026761657, 0.05, -0.08236391), (0.07006293, 0.05, -0.050903697), (0.1, 6.123234e-18, 0), (0.0809017, 6.123234e-18, 0.058778524), (0.0309017, 6.123234e-18, 0.09510565), (-0.0309017, 6.123234e-18, 0.09510565), (-0.0809017, 6.123234e-18, 0.058778524), (-0.1, 6.123234e-18, 1.2246468e-17), (-0.0809017, 6.123234e-18, -0.058778524), (-0.0309017, 6.123234e-18, -0.09510565), (0.0309017, 6.123234e-18, -0.09510565), (0.0809017, 6.123234e-18, -0.058778524), (0.08660254, -0.05, 0), (0.07006293, -0.05, 0.050903697), (0.026761657, -0.05, 0.08236391), (-0.026761657, -0.05, 0.08236391), (-0.07006293, -0.05, 0.050903697), (-0.08660254, -0.05, 1.06057525e-17), (-0.07006293, -0.05, -0.050903697), (-0.026761657, -0.05, -0.08236391), (0.026761657, -0.05, -0.08236391), (0.07006293, -0.05, -0.050903697), (0.05, -0.08660254, 0), (0.04045085, -0.08660254, 0.029389262), (0.01545085, -0.08660254, 0.047552824), (-0.01545085, -0.08660254, 0.047552824), (-0.04045085, -0.08660254, 0.029389262), (-0.05, -0.08660254, 6.123234e-18), (-0.04045085, -0.08660254, -0.029389262), (-0.01545085, -0.08660254, -0.047552824), (0.01545085, -0.08660254, -0.047552824), (0.04045085, -0.08660254, -0.029389262), (0, -0.1, 0)]
        uniform token subdivisionScheme = "none"
        double3 xformOp:translate = (0, 0.38, 0)
        uniform token[] xformOpOrder = ["xformOp:translate"]
    }

    def Mesh "Center"
    {
        int[] faceVertexCounts = [3, 3, 3, 3, 3, 3, 3, 3, 4, 4, 4, 4, 4, 4, 4, 4, 4, 4, 4, 4, 4, 4, 4, 4, 4, 4, 4, 4, 4, 4, 4, 4, 4, 4, 4, 4, 4, 4, 4, 4, 3, 3, 3, 3, 3, 3, 3, 3]
        int[] faceVertexIndices = [0, 1, 2, 0, 2, 3, 0, 3, 4, 0, 4, 5, 0, 5, 6, 0, 6, 7, 0, 7, 8, 0, 8, 1, 1, 2, 10, 9, 2, 3, 11, 10, 3, 4, 12, 11, 4, 5, 13, 12, 5, 6, 14, 13, 6, 7, 15, 14, 7, 8, 16, 15, 8, 1, 9, 16, 9, 10, 18, 17, 10, 11, 19, 18, 11, 12, 20, 19, 12, 13, 21, 20, 13, 14, 22, 21, 14, 15, 23, 22, 15, 16, 24, 23, 16, 9, 17, 24, 17, 18, 26, 25, 18, 19, 27, 26, 19, 20, 28, 27, 20, 21, 29, 28, 21, 22, 30, 29, 22, 23, 31, 30, 23, 24, 32, 31, 24, 17, 25, 32, 25, 26, 34, 33, 26, 27, 35, 34, 27, 28, 36, 35, 28, 29, 37, 36, 29, 30, 38, 37, 30, 31, 39, 38, 31, 32, 40, 39, 32, 25, 33, 40, 41, 34, 33, 41, 35, 34, 41, 36, 35, 41, 37, 36, 41, 38, 37, 41, 39, 38, 41, 40, 39, 41, 33, 40]
        rel material:binding = </Flower/Materials/Mat_Center>
        point3f[] points = [(0, 0.04, 0), (0.02, 0.034641016, 0), (0.014142135, 0.034641016, 0.014142135), (1.2246468e-18, 0.034641016, 0.02), (-0.014142135, 0.034641016, 0.014142135), (-0.02, 0.034641016, 2.4492936e-18), (-0.014142135, 0.034641016, -0.014142135), (-3.6739405e-18, 0.034641016, -0.02), (0.014142135, 0.034641016, -0.014142135), (0.034641016, 0.02, 0), (0.024494898, 0.02, 0.024494898), (2.1211504e-18, 0.02, 0.034641016), (-0.024494898, 0.02, 0.024494898), (-0.034641016, 0.02, 4.242301e-18), (-0.024494898, 0.02, -0.024494898), (-6.3634512e-18, 0.02, -0.034641016), (0.024494898, 0.02, -0.024494898), (0.04, 2.4492936e-18, 0), (0.02828427, 2.4492936e-18, 0.02828427), (2.4492936e-18, 2.4492936e-18, 0.04), (-0.02828427, 2.4492936e-18, 0.02828427), (-0.04, 2.4492936e-18, 4.898587e-18), (-0.02828427, 2.4492936e-18, -0.02828427), (-7.347881e-18, 2.4492936e-18, -0.04), (0.02828427, 2.4492936e-18, -0.02828427), (0.034641016, -0.02, 0), (0.024494898, -0.02, 0.024494898), (2.1211504e-18, -0.02, 0.034641016), (-0.024494898, -0.02, 0.024494898), (-0.034641016, -0.02, 4.242301e-18), (-0.024494898, -0.02, -0.024494898), (-6.3634512e-18, -0.02, -0.034641016), (0.024494898, -0.02, -0.024494898), (0.02, -0.034641016, 0), (0.014142135, -0.034641016, 0.014142135), (1.2246468e-18, -0.034641016, 0.02), (-0.014142135, -0.034641016, 0.014142135), (-0.02, -0.034641016, 2.4492936e-18), (-0.014142135, -0.034641016, -0.014142135), (-3.6739405e-18, -0.034641016, -0.02), (0.014142135, -0.034641016, -0.014142135), (0, -0.04, 0)]
        uniform token subdivisionScheme = "none"
        double3 xformOp:translate = (0, 0.4, 0)
        uniform token[] xformOpOrder = ["xformOp:translate"]
    }
}

